<?xml version="1.0" encoding="UTF-8" standalone="no"?>
<!DOCTYPE svg PUBLIC "-//W3C//DTD SVG 1.1//EN" "http://www.w3.org/Graphics/SVG/1.1/DTD/svg11.dtd">
<svg version="1.1" xmlns="http://www.w3.org/2000/svg" xmlns:xlink="http://www.w3.org/1999/xlink" preserveAspectRatio="xMidYMid meet" viewBox="-0.9986615074926846 -0.9878370822975242 204 203.85000000000002" width="200" height="199.85"><defs><path d="M63.02 173.29C53.69 182.58 25.55 192.94 16.22 183.64C6.89 174.35 17.29 146.31 26.62 137.01C35.95 127.72 50.88 130.09 60.21 139.39C69.54 148.69 72.35 163.98 63.02 173.29Z" id="c26LNVkM5J"></path><path d="M110.3 196.49C103.87 188.71 104.29 176.3 87.5 160.32C87.48 160.42 93.62 161.4 100.8 154.9C117.39 142.12 146.41 118.83 146.41 118.72C160.46 147.86 126.16 215.69 110.3 196.49Z" id="evkNOorsZ"></path><path d="M3.67 89.28C12.1 95.78 25.48 95.43 42.8 112.38C42.7 112.41 41.6 106.24 48.58 99.05C62.25 82.45 87.22 53.46 87.34 53.46C55.84 39.18 -17.12 73.26 3.67 89.28Z" id="b1MImQ7uEh"></path><path d="M72.11 50.15C65.19 58.6 48.3 79.41 38.01 92.58C33.79 97.16 32.64 101.32 32.4 103.78C34.42 105.17 36.5 106.77 38.64 108.6C39.17 106.12 40.55 102.65 44 98.9C57.15 82.08 81.14 52.67 81.25 52.68C78.9 51.55 76.25 50.78 73.47 50.22C73.2 50.21 72.24 50.16 72.11 50.15Z" id="cIlblwtfx"></path><path d="M100.98 156.17C95.87 160.9 91.33 161.79 89.06 161.88C91.28 164.11 93.21 166.28 94.84 168.37C96.88 168.4 101.78 167.76 107.31 162.65C120.26 152.44 140.54 135.89 149.24 128.7C148.77 125.26 147.91 122.04 146.6 119.18C142.49 122.64 116.45 143.99 100.98 156.17Z" id="b11w6RMJJn"></path><path d="M49.61 150.35C55.8 156.52 62.71 160.49 68.52 161.82C69.51 154 66.27 145.44 60.21 139.39C54.17 133.37 45.8 130.33 38.11 131.39C39.41 137.21 43.4 144.15 49.61 150.35Z" id="cbr5PjQduZ"></path><path d="M151.48 116.13C123.58 143.84 105.08 154.57 100.65 158.41C88.41 163.96 80.29 166.95 56.02 142.83C31.81 118.78 36.47 112.11 41.84 100.59C45.82 96.12 56.86 77.55 84.76 49.83C129.79 5.08 193.83 -3.33 198.74 1.03C203.44 5.47 196.53 71.38 151.48 116.13Z" id="c58rIgWz1K"></path><path d="M142.43 92.48C132.71 102.21 116.97 102.21 107.25 92.48C97.54 82.75 97.54 66.97 107.25 57.25C116.97 47.51 132.71 47.51 142.43 57.25C152.14 66.97 152.14 82.75 142.43 92.48Z" id="b1BJhfAx40"></path><path d="M133.72 83.69C128.83 88.55 120.89 88.55 115.98 83.69C111.09 78.83 111.09 70.94 115.98 66.08C120.89 61.21 128.83 61.21 133.72 66.08C138.61 70.94 138.61 78.83 133.72 83.69Z" id="butOSiG1K"></path></defs><g><g><use xlink:href="#c26LNVkM5J" opacity="1" fill="#efc75e" fill-opacity="1"></use><g><use xlink:href="#c26LNVkM5J" opacity="1" fill-opacity="0" stroke="#000000" stroke-width="1" stroke-opacity="0"></use></g></g><g><use xlink:href="#evkNOorsZ" opacity="1" fill="#68d072" fill-opacity="1"></use><g><use xlink:href="#evkNOorsZ" opacity="1" fill-opacity="0" stroke="#000000" stroke-width="1" stroke-opacity="0"></use></g></g><g><use xlink:href="#b1MImQ7uEh" opacity="1" fill="#68d072" fill-opacity="1"></use><g><use xlink:href="#b1MImQ7uEh" opacity="1" fill-opacity="0" stroke="#000000" stroke-width="1" stroke-opacity="0"></use></g></g><g><use xlink:href="#cIlblwtfx" opacity="1" fill="#68d072" fill-opacity="1"></use><g><use xlink:href="#cIlblwtfx" opacity="1" fill-opacity="0" stroke="#000000" stroke-width="1" stroke-opacity="0"></use></g></g><g><use xlink:href="#b11w6RMJJn" opacity="1" fill="#68d072" fill-opacity="1"></use><g><use xlink:href="#b11w6RMJJn" opacity="1" fill-opacity="0" stroke="#000000" stroke-width="1" stroke-opacity="0"></use></g></g><g><use xlink:href="#cbr5PjQduZ" opacity="1" fill="#d7b354" fill-opacity="1"></use><g><use xlink:href="#cbr5PjQduZ" opacity="1" fill-opacity="0" stroke="#000000" stroke-width="1" stroke-opacity="0"></use></g></g><g><use xlink:href="#c58rIgWz1K" opacity="1" fill="#68d072" fill-opacity="1"></use><g><use xlink:href="#c58rIgWz1K" opacity="1" fill-opacity="0" stroke="#000000" stroke-width="1" stroke-opacity="0"></use></g></g><g><use xlink:href="#b1BJhfAx40" opacity="1" fill="#353434" fill-opacity="1"></use><g><use xlink:href="#b1BJhfAx40" opacity="1" fill-opacity="0" stroke="#000000" stroke-width="1" stroke-opacity="0"></use></g></g><g><use xlink:href="#butOSiG1K" opacity="1" fill="#ffffff" fill-opacity="1"></use><g><use xlink:href="#butOSiG1K" opacity="1" fill-opacity="0" stroke="#000000" stroke-width="1" stroke-opacity="0"></use></g></g></g></svg>