<svg xmlns="http://www.w3.org/2000/svg" viewBox="0 0 6324 203" width="6324" height="203"><path d="M64.019 174.278c-9.33 9.29-37.47 19.65-46.8 10.35-9.33-9.29 1.07-37.33 10.4-46.63 9.33-9.29 24.26-6.92 33.59 2.38 9.33 9.3 12.14 24.59 2.81 33.9z" fill="#ffce00"/><path d="M111.299 197.478c-6.43-7.78-6.01-20.19-22.8-36.17-.02.1 6.12 1.08 13.3-5.42 16.59-12.78 45.61-36.07 45.61-36.18 14.05 29.14-20.25 96.97-36.11 77.77z" fill="#68d072"/><path d="M4.669 90.268c8.43 6.5 21.81 6.15 39.13 23.1-.1.03-1.2-6.14 5.78-13.33 13.67-16.6 38.64-45.59 38.76-45.59-31.5-14.28-104.46 19.8-83.67 35.82z" fill="#000000"/><path d="M4.669 90.268c8.43 6.5 21.81 6.15 39.13 23.1-.1.03-1.2-6.14 5.78-13.33 13.67-16.6 38.64-45.59 38.76-45.59-31.5-14.28-104.46 19.8-83.67 35.82zM111.299 197.478c-6.43-7.78-6.01-20.19-22.8-36.17-.02.1 6.12 1.08 13.3-5.42 16.59-12.78 45.61-36.07 45.61-36.18 14.05 29.14-20.25 96.97-36.11 77.77z" fill="#68d072"/><path d="M73.109 51.138c-6.92 8.45-23.81 29.26-34.1 42.43-4.22 4.58-5.37 8.74-5.61 11.2 2.02 1.39 4.1 2.99 6.24 4.82.53-2.48 1.91-5.95 5.36-9.7 13.15-16.82 37.14-46.23 37.25-46.22-2.35-1.13-5-1.9-7.78-2.46-.27-.01-1.23-.06-1.36-.07z" fill="#000000"/><path d="M73.109 51.138c-6.92 8.45-23.81 29.26-34.1 42.43-4.22 4.58-5.37 8.74-5.61 11.2 2.02 1.39 4.1 2.99 6.24 4.82.53-2.48 1.91-5.95 5.36-9.7 13.15-16.82 37.14-46.23 37.25-46.22-2.35-1.13-5-1.9-7.78-2.46-.27-.01-1.23-.06-1.36-.07z" fill="#68d072"/><path d="M101.979 157.158c-5.11 4.73-9.65 5.62-11.92 5.71 2.22 2.23 4.15 4.4 5.78 6.49 2.04.03 6.94-.61 12.47-5.72 12.95-10.21 33.23-26.76 41.93-33.95-.47-3.44-1.33-6.66-2.64-9.52-4.11 3.46-30.15 24.81-45.62 36.99z" fill="#000000"/><path d="M101.979 157.158c-5.11 4.73-9.65 5.62-11.92 5.71 2.22 2.23 4.15 4.4 5.78 6.49 2.04.03 6.94-.61 12.47-5.72 12.95-10.21 33.23-26.76 41.93-33.95-.47-3.44-1.33-6.66-2.64-9.52-4.11 3.46-30.15 24.81-45.62 36.99z" fill="#68d072"/><path d="M152.479 117.118c-27.9 27.71-46.4 38.44-50.83 42.28-12.24 5.55-20.36 8.54-44.63-15.58-24.21-24.05-19.55-30.72-14.18-42.24 3.98-4.47 15.02-23.04 42.92-50.76 45.03-44.75 109.07-53.16 113.98-48.8 4.7 4.44-2.21 70.35-47.26 115.1z" fill="#000000"/><path d="M152.479 117.118c-27.9 27.71-46.4 38.44-50.83 42.28-12.24 5.55-20.36 8.54-44.63-15.58-24.21-24.05-19.55-30.72-14.18-42.24 3.98-4.47 15.02-23.04 42.92-50.76 45.03-44.75 109.07-53.16 113.98-48.8 4.7 4.44-2.21 70.35-47.26 115.1z" fill="#68d072"/><path d="M143.429 93.468c-9.72 9.73-25.46 9.73-35.18 0-9.71-9.73-9.71-25.51 0-35.23 9.72-9.74 25.46-9.74 35.18 0 9.71 9.72 9.71 25.5 0 35.23z" fill="#000000"/><path d="M143.429 93.468c-9.72 9.73-25.46 9.73-35.18 0-9.71-9.73-9.71-25.51 0-35.23 9.72-9.74 25.46-9.74 35.18 0 9.71 9.72 9.71 25.5 0 35.23z" fill="#000000"/><path d="M134.719 84.678c-4.89 4.86-12.83 4.86-17.74 0-4.89-4.86-4.89-12.75 0-17.61 4.91-4.87 12.85-4.87 17.74 0 4.89 4.86 4.89 12.75 0 17.61z" fill="#000000"/><path d="M134.719 84.678c-4.89 4.86-12.83 4.86-17.74 0-4.89-4.86-4.89-12.75 0-17.61 4.91-4.87 12.85-4.87 17.74 0 4.89 4.86 4.89 12.75 0 17.61z" fill="#ffffff"/><g><path d="M268.933503 171.991741c-9.33 9.29-37.47 19.65-46.8 10.35-9.33-9.29 1.07-37.33 10.4-46.63 9.33-9.29 24.26-6.92 33.59 2.38 9.33 9.3 12.14 24.59 2.81 33.9z" fill="#ffce00"/><path d="M315.299 197.478c-6.43-7.78-6.01-20.19-22.8-36.17-.02.1 6.12 1.08 13.3-5.42 16.59-12.78 45.61-36.07 45.61-36.18 14.05 29.14-20.25 96.97-36.11 77.77z" fill="#68d072"/><path d="M208.669 90.268c8.43 6.5 21.81 6.15 39.13 23.1-.1.03-1.2-6.14 5.78-13.33 13.67-16.6 38.64-45.59 38.76-45.59-31.5-14.28-104.46 19.8-83.67 35.82z" fill="#000000"/><path d="M208.669 90.268c8.43 6.5 21.81 6.15 39.13 23.1-.1.03-1.2-6.14 5.78-13.33 13.67-16.6 38.64-45.59 38.76-45.59-31.5-14.28-104.46 19.8-83.67 35.82zM315.299 197.478c-6.43-7.78-6.01-20.19-22.8-36.17-.02.1 6.12 1.08 13.3-5.42 16.59-12.78 45.61-36.07 45.61-36.18 14.05 29.14-20.25 96.97-36.11 77.77z" fill="#68d072"/><path d="M277.109 51.138c-6.92 8.45-23.81 29.26-34.1 42.43-4.22 4.58-5.37 8.74-5.61 11.2 2.02 1.39 4.1 2.99 6.24 4.82.53-2.48 1.91-5.95 5.36-9.7 13.15-16.82 37.14-46.23 37.25-46.22-2.35-1.13-5-1.9-7.78-2.46-.27-.01-1.23-.06-1.36-.07z" fill="#000000"/><path d="M277.109 51.138c-6.92 8.45-23.81 29.26-34.1 42.43-4.22 4.58-5.37 8.74-5.61 11.2 2.02 1.39 4.1 2.99 6.24 4.82.53-2.48 1.91-5.95 5.36-9.7 13.15-16.82 37.14-46.23 37.25-46.22-2.35-1.13-5-1.9-7.78-2.46-.27-.01-1.23-.06-1.36-.07z" fill="#68d072"/><path d="M305.979 157.158c-5.11 4.73-9.65 5.62-11.92 5.71 2.22 2.23 4.15 4.4 5.78 6.49 2.04.03 6.94-.61 12.47-5.72 12.95-10.21 33.23-26.76 41.93-33.95-.47-3.44-1.33-6.66-2.64-9.52-4.11 3.46-30.15 24.81-45.62 36.99z" fill="#000000"/><path d="M305.979 157.158c-5.11 4.73-9.65 5.62-11.92 5.71 2.22 2.23 4.15 4.4 5.78 6.49 2.04.03 6.94-.61 12.47-5.72 12.95-10.21 33.23-26.76 41.93-33.95-.47-3.44-1.33-6.66-2.64-9.52-4.11 3.46-30.15 24.81-45.62 36.99z" fill="#68d072"/><path d="M356.479 117.118c-27.9 27.71-46.4 38.44-50.83 42.28-12.24 5.55-20.36 8.54-44.63-15.58-24.21-24.05-19.55-30.72-14.18-42.24 3.98-4.47 15.02-23.04 42.92-50.76 45.03-44.75 109.07-53.16 113.98-48.8 4.7 4.44-2.21 70.35-47.26 115.1z" fill="#000000"/><path d="M356.479 117.118c-27.9 27.71-46.4 38.44-50.83 42.28-12.24 5.55-20.36 8.54-44.63-15.58-24.21-24.05-19.55-30.72-14.18-42.24 3.98-4.47 15.02-23.04 42.92-50.76 45.03-44.75 109.07-53.16 113.98-48.8 4.7 4.44-2.21 70.35-47.26 115.1z" fill="#68d072"/><path d="M347.429 93.468c-9.72 9.73-25.46 9.73-35.18 0-9.71-9.73-9.71-25.51 0-35.23 9.72-9.74 25.46-9.74 35.18 0 9.71 9.72 9.71 25.5 0 35.23z" fill="#000000"/><path d="M347.429 93.468c-9.72 9.73-25.46 9.73-35.18 0-9.71-9.73-9.71-25.51 0-35.23 9.72-9.74 25.46-9.74 35.18 0 9.71 9.72 9.71 25.5 0 35.23z" fill="#000000"/><path d="M338.719 84.678c-4.89 4.86-12.83 4.86-17.74 0-4.89-4.86-4.89-12.75 0-17.61 4.91-4.87 12.85-4.87 17.74 0 4.89 4.86 4.89 12.75 0 17.61z" fill="#000000"/><path d="M338.719 84.678c-4.89 4.86-12.83 4.86-17.74 0-4.89-4.86-4.89-12.75 0-17.61 4.91-4.87 12.85-4.87 17.74 0 4.89 4.86 4.89 12.75 0 17.61z" fill="#ffffff"/></g><g><path d="M473.860552 169.674121c-9.33 9.29-37.47 19.65-46.8 10.35-9.33-9.29 1.07-37.33 10.4-46.63 9.33-9.29 24.26-6.92 33.59 2.38 9.33 9.3 12.14 24.59 2.81 33.9z" fill="#ffce00"/><path d="M519.299 197.478c-6.43-7.78-6.01-20.19-22.8-36.17-.02.1 6.12 1.08 13.3-5.42 16.59-12.78 45.61-36.07 45.61-36.18 14.05 29.14-20.25 96.97-36.11 77.77z" fill="#68d072"/><path d="M412.669 90.268c8.43 6.5 21.81 6.15 39.13 23.1-.1.03-1.2-6.14 5.78-13.33 13.67-16.6 38.64-45.59 38.76-45.59-31.5-14.28-104.46 19.8-83.67 35.82z" fill="#000000"/><path d="M412.669 90.268c8.43 6.5 21.81 6.15 39.13 23.1-.1.03-1.2-6.14 5.78-13.33 13.67-16.6 38.64-45.59 38.76-45.59-31.5-14.28-104.46 19.8-83.67 35.82zM519.299 197.478c-6.43-7.78-6.01-20.19-22.8-36.17-.02.1 6.12 1.08 13.3-5.42 16.59-12.78 45.61-36.07 45.61-36.18 14.05 29.14-20.25 96.97-36.11 77.77z" fill="#68d072"/><path d="M481.109 51.138c-6.92 8.45-23.81 29.26-34.1 42.43-4.22 4.58-5.37 8.74-5.61 11.2 2.02 1.39 4.1 2.99 6.24 4.82.53-2.48 1.91-5.95 5.36-9.7 13.15-16.82 37.14-46.23 37.25-46.22-2.35-1.13-5-1.9-7.78-2.46-.27-.01-1.23-.06-1.36-.07z" fill="#000000"/><path d="M481.109 51.138c-6.92 8.45-23.81 29.26-34.1 42.43-4.22 4.58-5.37 8.74-5.61 11.2 2.02 1.39 4.1 2.99 6.24 4.82.53-2.48 1.91-5.95 5.36-9.7 13.15-16.82 37.14-46.23 37.25-46.22-2.35-1.13-5-1.9-7.78-2.46-.27-.01-1.23-.06-1.36-.07z" fill="#68d072"/><path d="M509.979 157.158c-5.11 4.73-9.65 5.62-11.92 5.71 2.22 2.23 4.15 4.4 5.78 6.49 2.04.03 6.94-.61 12.47-5.72 12.95-10.21 33.23-26.76 41.93-33.95-.47-3.44-1.33-6.66-2.64-9.52-4.11 3.46-30.15 24.81-45.62 36.99z" fill="#000000"/><path d="M509.979 157.158c-5.11 4.73-9.65 5.62-11.92 5.71 2.22 2.23 4.15 4.4 5.78 6.49 2.04.03 6.94-.61 12.47-5.72 12.95-10.21 33.23-26.76 41.93-33.95-.47-3.44-1.33-6.66-2.64-9.52-4.11 3.46-30.15 24.81-45.62 36.99z" fill="#68d072"/><path d="M560.479 117.118c-27.9 27.71-46.4 38.44-50.83 42.28-12.24 5.55-20.36 8.54-44.63-15.58-24.21-24.05-19.55-30.72-14.18-42.24 3.98-4.47 15.02-23.04 42.92-50.76 45.03-44.75 109.07-53.16 113.98-48.8 4.7 4.44-2.21 70.35-47.26 115.1z" fill="#000000"/><path d="M560.479 117.118c-27.9 27.71-46.4 38.44-50.83 42.28-12.24 5.55-20.36 8.54-44.63-15.58-24.21-24.05-19.55-30.72-14.18-42.24 3.98-4.47 15.02-23.04 42.92-50.76 45.03-44.75 109.07-53.16 113.98-48.8 4.7 4.44-2.21 70.35-47.26 115.1z" fill="#68d072"/><path d="M551.429 93.468c-9.72 9.73-25.46 9.73-35.18 0-9.71-9.73-9.71-25.51 0-35.23 9.72-9.74 25.46-9.74 35.18 0 9.71 9.72 9.71 25.5 0 35.23z" fill="#000000"/><path d="M551.429 93.468c-9.72 9.73-25.46 9.73-35.18 0-9.71-9.73-9.71-25.51 0-35.23 9.72-9.74 25.46-9.74 35.18 0 9.71 9.72 9.71 25.5 0 35.23z" fill="#000000"/><path d="M542.719 84.678c-4.89 4.86-12.83 4.86-17.74 0-4.89-4.86-4.89-12.75 0-17.61 4.91-4.87 12.85-4.87 17.74 0 4.89 4.86 4.89 12.75 0 17.61z" fill="#000000"/><path d="M542.719 84.678c-4.89 4.86-12.83 4.86-17.74 0-4.89-4.86-4.89-12.75 0-17.61 4.91-4.87 12.85-4.87 17.74 0 4.89 4.86 4.89 12.75 0 17.61z" fill="#ffffff"/></g><g><path d="M676.019 174.278c-9.33 9.29-37.47 19.65-46.8 10.35-9.33-9.29 1.07-37.33 10.4-46.63 9.33-9.29 24.26-6.92 33.59 2.38 9.33 9.3 12.14 24.59 2.81 33.9z" fill="#ffce00"/><path d="M723.299 197.478c-6.43-7.78-6.01-20.19-22.8-36.17-.02.1 6.12 1.08 13.3-5.42 16.59-12.78 45.61-36.07 45.61-36.18 14.05 29.14-20.25 96.97-36.11 77.77z" fill="#68d072"/><path d="M616.669 90.268c8.43 6.5 21.81 6.15 39.13 23.1-.1.03-1.2-6.14 5.78-13.33 13.67-16.6 38.64-45.59 38.76-45.59-31.5-14.28-104.46 19.8-83.67 35.82z" fill="#000000"/><path d="M616.669 90.268c8.43 6.5 21.81 6.15 39.13 23.1-.1.03-1.2-6.14 5.78-13.33 13.67-16.6 38.64-45.59 38.76-45.59-31.5-14.28-104.46 19.8-83.67 35.82zM723.299 197.478c-6.43-7.78-6.01-20.19-22.8-36.17-.02.1 6.12 1.08 13.3-5.42 16.59-12.78 45.61-36.07 45.61-36.18 14.05 29.14-20.25 96.97-36.11 77.77z" fill="#68d072"/><path d="M685.109 51.138c-6.92 8.45-23.81 29.26-34.1 42.43-4.22 4.58-5.37 8.74-5.61 11.2 2.02 1.39 4.1 2.99 6.24 4.82.53-2.48 1.91-5.95 5.36-9.7 13.15-16.82 37.14-46.23 37.25-46.22-2.35-1.13-5-1.9-7.78-2.46-.27-.01-1.23-.06-1.36-.07z" fill="#000000"/><path d="M685.109 51.138c-6.92 8.45-23.81 29.26-34.1 42.43-4.22 4.58-5.37 8.74-5.61 11.2 2.02 1.39 4.1 2.99 6.24 4.82.53-2.48 1.91-5.95 5.36-9.7 13.15-16.82 37.14-46.23 37.25-46.22-2.35-1.13-5-1.9-7.78-2.46-.27-.01-1.23-.06-1.36-.07z" fill="#68d072"/><path d="M713.979 157.158c-5.11 4.73-9.65 5.62-11.92 5.71 2.22 2.23 4.15 4.4 5.78 6.49 2.04.03 6.94-.61 12.47-5.72 12.95-10.21 33.23-26.76 41.93-33.95-.47-3.44-1.33-6.66-2.64-9.52-4.11 3.46-30.15 24.81-45.62 36.99z" fill="#000000"/><path d="M713.979 157.158c-5.11 4.73-9.65 5.62-11.92 5.71 2.22 2.23 4.15 4.4 5.78 6.49 2.04.03 6.94-.61 12.47-5.72 12.95-10.21 33.23-26.76 41.93-33.95-.47-3.44-1.33-6.66-2.64-9.52-4.11 3.46-30.15 24.81-45.62 36.99z" fill="#68d072"/><path d="M764.479 117.118c-27.9 27.71-46.4 38.44-50.83 42.28-12.24 5.55-20.36 8.54-44.63-15.58-24.21-24.05-19.55-30.72-14.18-42.24 3.98-4.47 15.02-23.04 42.92-50.76 45.03-44.75 109.07-53.16 113.98-48.8 4.7 4.44-2.21 70.35-47.26 115.1z" fill="#000000"/><path d="M764.479 117.118c-27.9 27.71-46.4 38.44-50.83 42.28-12.24 5.55-20.36 8.54-44.63-15.58-24.21-24.05-19.55-30.72-14.18-42.24 3.98-4.47 15.02-23.04 42.92-50.76 45.03-44.75 109.07-53.16 113.98-48.8 4.7 4.44-2.21 70.35-47.26 115.1z" fill="#68d072"/><path d="M755.429 93.468c-9.72 9.73-25.46 9.73-35.18 0-9.71-9.73-9.71-25.51 0-35.23 9.72-9.74 25.46-9.74 35.18 0 9.71 9.72 9.71 25.5 0 35.23z" fill="#000000"/><path d="M755.429 93.468c-9.72 9.73-25.46 9.73-35.18 0-9.71-9.73-9.71-25.51 0-35.23 9.72-9.74 25.46-9.74 35.18 0 9.71 9.72 9.71 25.5 0 35.23z" fill="#000000"/><path d="M746.719 84.678c-4.89 4.86-12.83 4.86-17.74 0-4.89-4.86-4.89-12.75 0-17.61 4.91-4.87 12.85-4.87 17.74 0 4.89 4.86 4.89 12.75 0 17.61z" fill="#000000"/><path d="M746.719 84.678c-4.89 4.86-12.83 4.86-17.74 0-4.89-4.86-4.89-12.75 0-17.61 4.91-4.87 12.85-4.87 17.74 0 4.89 4.86 4.89 12.75 0 17.61z" fill="#ffffff"/></g><g><path d="M879.104497 176.564259c-9.33 9.29-37.47 19.65-46.8 10.35-9.33-9.29 1.07-37.33 10.4-46.63 9.33-9.29 24.26-6.92 33.59 2.38 9.33 9.3 12.14 24.59 2.81 33.9z" fill="#ffce00"/><path d="M927.299 197.478c-6.43-7.78-6.01-20.19-22.8-36.17-.02.1 6.12 1.08 13.3-5.42 16.59-12.78 45.61-36.07 45.61-36.18 14.05 29.14-20.25 96.97-36.11 77.77z" fill="#68d072"/><path d="M820.669 90.268c8.43 6.5 21.81 6.15 39.13 23.1-.1.03-1.2-6.14 5.78-13.33 13.67-16.6 38.64-45.59 38.76-45.59-31.5-14.28-104.46 19.8-83.67 35.82z" fill="#000000"/><path d="M820.669 90.268c8.43 6.5 21.81 6.15 39.13 23.1-.1.03-1.2-6.14 5.78-13.33 13.67-16.6 38.64-45.59 38.76-45.59-31.5-14.28-104.46 19.8-83.67 35.82zM927.299 197.478c-6.43-7.78-6.01-20.19-22.8-36.17-.02.1 6.12 1.08 13.3-5.42 16.59-12.78 45.61-36.07 45.61-36.18 14.05 29.14-20.25 96.97-36.11 77.77z" fill="#68d072"/><path d="M889.109 51.138c-6.92 8.45-23.81 29.26-34.1 42.43-4.22 4.58-5.37 8.74-5.61 11.2 2.02 1.39 4.1 2.99 6.24 4.82.53-2.48 1.91-5.95 5.36-9.7 13.15-16.82 37.14-46.23 37.25-46.22-2.35-1.13-5-1.9-7.78-2.46-.27-.01-1.23-.06-1.36-.07z" fill="#000000"/><path d="M889.109 51.138c-6.92 8.45-23.81 29.26-34.1 42.43-4.22 4.58-5.37 8.74-5.61 11.2 2.02 1.39 4.1 2.99 6.24 4.82.53-2.48 1.91-5.95 5.36-9.7 13.15-16.82 37.14-46.23 37.25-46.22-2.35-1.13-5-1.9-7.78-2.46-.27-.01-1.23-.06-1.36-.07z" fill="#68d072"/><path d="M917.979 157.158c-5.11 4.73-9.65 5.62-11.92 5.71 2.22 2.23 4.15 4.4 5.78 6.49 2.04.03 6.94-.61 12.47-5.72 12.95-10.21 33.23-26.76 41.93-33.95-.47-3.44-1.33-6.66-2.64-9.52-4.11 3.46-30.15 24.81-45.62 36.99z" fill="#000000"/><path d="M917.979 157.158c-5.11 4.73-9.65 5.62-11.92 5.71 2.22 2.23 4.15 4.4 5.78 6.49 2.04.03 6.94-.61 12.47-5.72 12.95-10.21 33.23-26.76 41.93-33.95-.47-3.44-1.33-6.66-2.64-9.52-4.11 3.46-30.15 24.81-45.62 36.99z" fill="#68d072"/><path d="M968.479 117.118c-27.9 27.71-46.4 38.44-50.83 42.28-12.24 5.55-20.36 8.54-44.63-15.58-24.21-24.05-19.55-30.72-14.18-42.24 3.98-4.47 15.02-23.04 42.92-50.76 45.03-44.75 109.07-53.16 113.98-48.8 4.7 4.44-2.21 70.35-47.26 115.1z" fill="#000000"/><path d="M968.479 117.118c-27.9 27.71-46.4 38.44-50.83 42.28-12.24 5.55-20.36 8.54-44.63-15.58-24.21-24.05-19.55-30.72-14.18-42.24 3.98-4.47 15.02-23.04 42.92-50.76 45.03-44.75 109.07-53.16 113.98-48.8 4.7 4.44-2.21 70.35-47.26 115.1z" fill="#68d072"/><path d="M959.429 93.468c-9.72 9.73-25.46 9.73-35.18 0-9.71-9.73-9.71-25.51 0-35.23 9.72-9.74 25.46-9.74 35.18 0 9.71 9.72 9.71 25.5 0 35.23z" fill="#000000"/><path d="M959.429 93.468c-9.72 9.73-25.46 9.73-35.18 0-9.71-9.73-9.71-25.51 0-35.23 9.72-9.74 25.46-9.74 35.18 0 9.71 9.72 9.71 25.5 0 35.23z" fill="#000000"/><path d="M950.719 84.678c-4.89 4.86-12.83 4.86-17.74 0-4.89-4.86-4.89-12.75 0-17.61 4.91-4.87 12.85-4.87 17.74 0 4.89 4.86 4.89 12.75 0 17.61z" fill="#000000"/><path d="M950.719 84.678c-4.89 4.86-12.83 4.86-17.74 0-4.89-4.86-4.89-12.75 0-17.61 4.91-4.87 12.85-4.87 17.74 0 4.89 4.86 4.89 12.75 0 17.61z" fill="#ffffff"/></g><g><path d="M1082.177448 178.881879c-9.33 9.29-37.47 19.65-46.8 10.35-9.33-9.29 1.07-37.33 10.4-46.63 9.33-9.29 24.26-6.92 33.59 2.38 9.33 9.3 12.14 24.59 2.81 33.9z" fill="#ffce00"/><path d="M1131.299 197.478c-6.43-7.78-6.01-20.19-22.8-36.17-.02.1 6.12 1.08 13.3-5.42 16.59-12.78 45.61-36.07 45.61-36.18 14.05 29.14-20.25 96.97-36.11 77.77z" fill="#68d072"/><path d="M1024.669 90.268c8.43 6.5 21.81 6.15 39.13 23.1-.1.03-1.2-6.14 5.78-13.33 13.67-16.6 38.64-45.59 38.76-45.59-31.5-14.28-104.46 19.8-83.67 35.82z" fill="#000000"/><path d="M1024.669 90.268c8.43 6.5 21.81 6.15 39.13 23.1-.1.03-1.2-6.14 5.78-13.33 13.67-16.6 38.64-45.59 38.76-45.59-31.5-14.28-104.46 19.8-83.67 35.82zM1131.299 197.478c-6.43-7.78-6.01-20.19-22.8-36.17-.02.1 6.12 1.08 13.3-5.42 16.59-12.78 45.61-36.07 45.61-36.18 14.05 29.14-20.25 96.97-36.11 77.77z" fill="#68d072"/><path d="M1093.109 51.138c-6.92 8.45-23.81 29.26-34.1 42.43-4.22 4.58-5.37 8.74-5.61 11.2 2.02 1.39 4.1 2.99 6.24 4.82.53-2.48 1.91-5.95 5.36-9.7 13.15-16.82 37.14-46.23 37.25-46.22-2.35-1.13-5-1.9-7.78-2.46-.27-.01-1.23-.06-1.36-.07z" fill="#000000"/><path d="M1093.109 51.138c-6.92 8.45-23.81 29.26-34.1 42.43-4.22 4.58-5.37 8.74-5.61 11.2 2.02 1.39 4.1 2.99 6.24 4.82.53-2.48 1.91-5.95 5.36-9.7 13.15-16.82 37.14-46.23 37.25-46.22-2.35-1.13-5-1.9-7.78-2.46-.27-.01-1.23-.06-1.36-.07z" fill="#68d072"/><path d="M1121.979 157.158c-5.11 4.73-9.65 5.62-11.92 5.71 2.22 2.23 4.15 4.4 5.78 6.49 2.04.03 6.94-.61 12.47-5.72 12.95-10.21 33.23-26.76 41.93-33.95-.47-3.44-1.33-6.66-2.64-9.52-4.11 3.46-30.15 24.81-45.62 36.99z" fill="#000000"/><path d="M1121.979 157.158c-5.11 4.73-9.65 5.62-11.92 5.71 2.22 2.23 4.15 4.4 5.78 6.49 2.04.03 6.94-.61 12.47-5.72 12.95-10.21 33.23-26.76 41.93-33.95-.47-3.44-1.33-6.66-2.64-9.52-4.11 3.46-30.15 24.81-45.62 36.99z" fill="#68d072"/><path d="M1172.479 117.118c-27.9 27.71-46.4 38.44-50.83 42.28-12.24 5.55-20.36 8.54-44.63-15.58-24.21-24.05-19.55-30.72-14.18-42.24 3.98-4.47 15.02-23.04 42.92-50.76 45.03-44.75 109.07-53.16 113.98-48.8 4.7 4.44-2.21 70.35-47.26 115.1z" fill="#000000"/><path d="M1172.479 117.118c-27.9 27.71-46.4 38.44-50.83 42.28-12.24 5.55-20.36 8.54-44.63-15.58-24.21-24.05-19.55-30.72-14.18-42.24 3.98-4.47 15.02-23.04 42.92-50.76 45.03-44.75 109.07-53.16 113.98-48.8 4.7 4.44-2.21 70.35-47.26 115.1z" fill="#68d072"/><path d="M1163.429 93.468c-9.72 9.73-25.46 9.73-35.18 0-9.71-9.73-9.71-25.51 0-35.23 9.72-9.74 25.46-9.74 35.18 0 9.71 9.72 9.71 25.5 0 35.23z" fill="#000000"/><path d="M1163.429 93.468c-9.72 9.73-25.46 9.73-35.18 0-9.71-9.73-9.71-25.51 0-35.23 9.72-9.74 25.46-9.74 35.18 0 9.71 9.72 9.71 25.5 0 35.23z" fill="#000000"/><path d="M1154.719 84.678c-4.89 4.86-12.83 4.86-17.74 0-4.89-4.86-4.89-12.75 0-17.61 4.91-4.87 12.85-4.87 17.74 0 4.89 4.86 4.89 12.75 0 17.61z" fill="#000000"/><path d="M1154.719 84.678c-4.89 4.86-12.83 4.86-17.74 0-4.89-4.86-4.89-12.75 0-17.61 4.91-4.87 12.85-4.87 17.74 0 4.89 4.86 4.89 12.75 0 17.61z" fill="#ffffff"/></g><g><path d="M1288.019 174.278c-9.33 9.29-37.47 19.65-46.8 10.35-9.33-9.29 1.07-37.33 10.4-46.63 9.33-9.29 24.26-6.92 33.59 2.38 9.33 9.3 12.14 24.59 2.81 33.9z" fill="#ffce00"/><path d="M1335.299 197.478c-6.43-7.78-6.01-20.19-22.8-36.17-.02.1 6.12 1.08 13.3-5.42 16.59-12.78 45.61-36.07 45.61-36.18 14.05 29.14-20.25 96.97-36.11 77.77z" fill="#68d072"/><path d="M1228.669 90.268c8.43 6.5 21.81 6.15 39.13 23.1-.1.03-1.2-6.14 5.78-13.33 13.67-16.6 38.64-45.59 38.76-45.59-31.5-14.28-104.46 19.8-83.67 35.82z" fill="#000000"/><path d="M1228.669 90.268c8.43 6.5 21.81 6.15 39.13 23.1-.1.03-1.2-6.14 5.78-13.33 13.67-16.6 38.64-45.59 38.76-45.59-31.5-14.28-104.46 19.8-83.67 35.82zM1335.299 197.478c-6.43-7.78-6.01-20.19-22.8-36.17-.02.1 6.12 1.08 13.3-5.42 16.59-12.78 45.61-36.07 45.61-36.18 14.05 29.14-20.25 96.97-36.11 77.77z" fill="#68d072"/><path d="M1297.109 51.138c-6.92 8.45-23.81 29.26-34.1 42.43-4.22 4.58-5.37 8.74-5.61 11.2 2.02 1.39 4.1 2.99 6.24 4.82.53-2.48 1.91-5.95 5.36-9.7 13.15-16.82 37.14-46.23 37.25-46.22-2.35-1.13-5-1.9-7.78-2.46-.27-.01-1.23-.06-1.36-.07z" fill="#000000"/><path d="M1297.109 51.138c-6.92 8.45-23.81 29.26-34.1 42.43-4.22 4.58-5.37 8.74-5.61 11.2 2.02 1.39 4.1 2.99 6.24 4.82.53-2.48 1.91-5.95 5.36-9.7 13.15-16.82 37.14-46.23 37.25-46.22-2.35-1.13-5-1.9-7.78-2.46-.27-.01-1.23-.06-1.36-.07z" fill="#68d072"/><path d="M1325.979 157.158c-5.11 4.73-9.65 5.62-11.92 5.71 2.22 2.23 4.15 4.4 5.78 6.49 2.04.03 6.94-.61 12.47-5.72 12.95-10.21 33.23-26.76 41.93-33.95-.47-3.44-1.33-6.66-2.64-9.52-4.11 3.46-30.15 24.81-45.62 36.99z" fill="#000000"/><path d="M1325.979 157.158c-5.11 4.73-9.65 5.62-11.92 5.71 2.22 2.23 4.15 4.4 5.78 6.49 2.04.03 6.94-.61 12.47-5.72 12.95-10.21 33.23-26.76 41.93-33.95-.47-3.44-1.33-6.66-2.64-9.52-4.11 3.46-30.15 24.81-45.62 36.99z" fill="#68d072"/><path d="M1376.479 117.118c-27.9 27.71-46.4 38.44-50.83 42.28-12.24 5.55-20.36 8.54-44.63-15.58-24.21-24.05-19.55-30.72-14.18-42.24 3.98-4.47 15.02-23.04 42.92-50.76 45.03-44.75 109.07-53.16 113.98-48.8 4.7 4.44-2.21 70.35-47.26 115.1z" fill="#000000"/><path d="M1376.479 117.118c-27.9 27.71-46.4 38.44-50.83 42.28-12.24 5.55-20.36 8.54-44.63-15.58-24.21-24.05-19.55-30.72-14.18-42.24 3.98-4.47 15.02-23.04 42.92-50.76 45.03-44.75 109.07-53.16 113.98-48.8 4.7 4.44-2.21 70.35-47.26 115.1z" fill="#68d072"/><path d="M1367.429 93.468c-9.72 9.73-25.46 9.73-35.18 0-9.71-9.73-9.71-25.51 0-35.23 9.72-9.74 25.46-9.74 35.18 0 9.71 9.72 9.71 25.5 0 35.23z" fill="#000000"/><path d="M1367.429 93.468c-9.72 9.73-25.46 9.73-35.18 0-9.71-9.73-9.71-25.51 0-35.23 9.72-9.74 25.46-9.74 35.18 0 9.71 9.72 9.71 25.5 0 35.23z" fill="#000000"/><path d="M1358.719 84.678c-4.89 4.86-12.83 4.86-17.74 0-4.89-4.86-4.89-12.75 0-17.61 4.91-4.87 12.85-4.87 17.74 0 4.89 4.86 4.89 12.75 0 17.61z" fill="#000000"/><path d="M1358.719 84.678c-4.89 4.86-12.83 4.86-17.74 0-4.89-4.86-4.89-12.75 0-17.61 4.91-4.87 12.85-4.87 17.74 0 4.89 4.86 4.89 12.75 0 17.61z" fill="#ffffff"/></g><g><path d="M1492.933503 171.991741c-9.33 9.29-37.47 19.65-46.8 10.35-9.33-9.29 1.07-37.33 10.4-46.63 9.33-9.29 24.26-6.92 33.59 2.38 9.33 9.3 12.14 24.59 2.81 33.9z" fill="#ffce00"/><path d="M1539.646222 197.130778c-6.43-7.78-6.01-20.19-22.8-36.17-.02.1 6.12 1.08 13.3-5.42 16.59-12.78 45.61-36.07 45.61-36.18 14.05 29.14-20.25 96.97-36.11 77.77z" fill="#68d072"/><path d="M1433.016222 89.920778c8.43 6.5 21.81 6.15 39.13 23.1-.1.03-1.2-6.14 5.78-13.33 13.67-16.6 38.64-45.59 38.76-45.59-31.5-14.28-104.46 19.8-83.67 35.82z" fill="#000000"/><path d="M1433.016222 89.920778c8.43 6.5 21.81 6.15 39.13 23.1-.1.03-1.2-6.14 5.78-13.33 13.67-16.6 38.64-45.59 38.76-45.59-31.5-14.28-104.46 19.8-83.67 35.82zM1539.646222 197.130778c-6.43-7.78-6.01-20.19-22.8-36.17-.02.1 6.12 1.08 13.3-5.42 16.59-12.78 45.61-36.07 45.61-36.18 14.05 29.14-20.25 96.97-36.11 77.77z" fill="#68d072"/><path d="M1501.456222 50.790778c-6.92 8.45-23.81 29.26-34.1 42.43-4.22 4.58-5.37 8.74-5.61 11.2 2.02 1.39 4.1 2.99 6.24 4.82.53-2.48 1.91-5.95 5.36-9.7 13.15-16.82 37.14-46.23 37.25-46.22-2.35-1.13-5-1.9-7.78-2.46-.27-.01-1.23-.06-1.36-.07z" fill="#000000"/><path d="M1501.456222 50.790778c-6.92 8.45-23.81 29.26-34.1 42.43-4.22 4.58-5.37 8.74-5.61 11.2 2.02 1.39 4.1 2.99 6.24 4.82.53-2.48 1.91-5.95 5.36-9.7 13.15-16.82 37.14-46.23 37.25-46.22-2.35-1.13-5-1.9-7.78-2.46-.27-.01-1.23-.06-1.36-.07z" fill="#68d072"/><path d="M1530.326222 156.810778c-5.11 4.73-9.65 5.62-11.92 5.71 2.22 2.23 4.15 4.4 5.78 6.49 2.04.03 6.94-.61 12.47-5.72 12.95-10.21 33.23-26.76 41.93-33.95-.47-3.44-1.33-6.66-2.64-9.52-4.11 3.46-30.15 24.81-45.62 36.99z" fill="#000000"/><path d="M1530.326222 156.810778c-5.11 4.73-9.65 5.62-11.92 5.71 2.22 2.23 4.15 4.4 5.78 6.49 2.04.03 6.94-.61 12.47-5.72 12.95-10.21 33.23-26.76 41.93-33.95-.47-3.44-1.33-6.66-2.64-9.52-4.11 3.46-30.15 24.81-45.62 36.99z" fill="#68d072"/><path d="M1580.826222 116.770778c-27.9 27.71-46.4 38.44-50.83 42.28-12.24 5.55-20.36 8.54-44.63-15.58-24.21-24.05-19.55-30.72-14.18-42.24 3.98-4.47 15.02-23.04 42.92-50.76 45.03-44.75 109.07-53.16 113.98-48.8 4.7 4.44-2.21 70.35-47.26 115.1z" fill="#000000"/><path d="M1580.826222 116.770778c-27.9 27.71-46.4 38.44-50.83 42.28-12.24 5.55-20.36 8.54-44.63-15.58-24.21-24.05-19.55-30.72-14.18-42.24 3.98-4.47 15.02-23.04 42.92-50.76 45.03-44.75 109.07-53.16 113.98-48.8 4.7 4.44-2.21 70.35-47.26 115.1z" fill="#68d072"/><path d="M1571.776222 93.120778c-9.72 9.73-25.46 9.73-35.18 0-9.71-9.73-9.71-25.51 0-35.23 9.72-9.74 25.46-9.74 35.18 0 9.71 9.72 9.71 25.5 0 35.23z" fill="#000000"/><path d="M1571.776222 93.120778c-9.72 9.73-25.46 9.73-35.18 0-9.71-9.73-9.71-25.51 0-35.23 9.72-9.74 25.46-9.74 35.18 0 9.71 9.72 9.71 25.5 0 35.23z" fill="#000000"/><path d="M1563.066222 84.330778c-4.89 4.86-12.83 4.86-17.74 0-4.89-4.86-4.89-12.75 0-17.61 4.91-4.87 12.85-4.87 17.74 0 4.89 4.86 4.89 12.75 0 17.61z" fill="#000000"/><path d="M1563.066222 84.330778c-4.89 4.86-12.83 4.86-17.74 0-4.89-4.86-4.89-12.75 0-17.61 4.91-4.87 12.85-4.87 17.74 0 4.89 4.86 4.89 12.75 0 17.61z" fill="#ffffff"/></g><g><path d="M1697.860552 169.674121c-9.33 9.29-37.47 19.65-46.8 10.35-9.33-9.29 1.07-37.33 10.4-46.63 9.33-9.29 24.26-6.92 33.59 2.38 9.33 9.3 12.14 24.59 2.81 33.9z" fill="#ffce00"/><path d="M1744.687889 196.089111c-6.43-7.78-6.01-20.19-22.8-36.17-.02.1 6.12 1.08 13.3-5.42 16.59-12.78 45.61-36.07 45.61-36.18 14.05 29.14-20.25 96.97-36.11 77.77z" fill="#68d072"/><path d="M1638.057889 88.879111c8.43 6.5 21.81 6.15 39.13 23.1-.1.03-1.2-6.14 5.78-13.33 13.67-16.6 38.64-45.59 38.76-45.59-31.5-14.28-104.46 19.8-83.67 35.82z" fill="#000000"/><path d="M1638.057889 88.879111c8.43 6.5 21.81 6.15 39.13 23.1-.1.03-1.2-6.14 5.78-13.33 13.67-16.6 38.64-45.59 38.76-45.59-31.5-14.28-104.46 19.8-83.67 35.82zM1744.687889 196.089111c-6.43-7.78-6.01-20.19-22.8-36.17-.02.1 6.12 1.08 13.3-5.42 16.59-12.78 45.61-36.07 45.61-36.18 14.05 29.14-20.25 96.97-36.11 77.77z" fill="#68d072"/><path d="M1706.497889 49.749111c-6.92 8.45-23.81 29.26-34.1 42.43-4.22 4.58-5.37 8.74-5.61 11.2 2.02 1.39 4.1 2.99 6.24 4.82.53-2.48 1.91-5.95 5.36-9.7 13.15-16.82 37.14-46.23 37.25-46.22-2.35-1.13-5-1.9-7.78-2.46-.27-.01-1.23-.06-1.36-.07z" fill="#000000"/><path d="M1706.497889 49.749111c-6.92 8.45-23.81 29.26-34.1 42.43-4.22 4.58-5.37 8.74-5.61 11.2 2.02 1.39 4.1 2.99 6.24 4.82.53-2.48 1.91-5.95 5.36-9.7 13.15-16.82 37.14-46.23 37.25-46.22-2.35-1.13-5-1.9-7.78-2.46-.27-.01-1.23-.06-1.36-.07z" fill="#68d072"/><path d="M1735.367889 155.769111c-5.11 4.73-9.65 5.62-11.92 5.71 2.22 2.23 4.15 4.4 5.78 6.49 2.04.03 6.94-.61 12.47-5.72 12.95-10.21 33.23-26.76 41.93-33.95-.47-3.44-1.33-6.66-2.64-9.52-4.11 3.46-30.15 24.81-45.62 36.99z" fill="#000000"/><path d="M1735.367889 155.769111c-5.11 4.73-9.65 5.62-11.92 5.71 2.22 2.23 4.15 4.4 5.78 6.49 2.04.03 6.94-.61 12.47-5.72 12.95-10.21 33.23-26.76 41.93-33.95-.47-3.44-1.33-6.66-2.64-9.52-4.11 3.46-30.15 24.81-45.62 36.99z" fill="#68d072"/><path d="M1785.867889 115.729111c-27.9 27.71-46.4 38.44-50.83 42.28-12.24 5.55-20.36 8.54-44.63-15.58-24.21-24.05-19.55-30.72-14.18-42.24 3.98-4.47 15.02-23.04 42.92-50.76 45.03-44.75 109.07-53.16 113.98-48.8 4.7 4.44-2.21 70.35-47.26 115.1z" fill="#000000"/><path d="M1785.867889 115.729111c-27.9 27.71-46.4 38.44-50.83 42.28-12.24 5.55-20.36 8.54-44.63-15.58-24.21-24.05-19.55-30.72-14.18-42.24 3.98-4.47 15.02-23.04 42.92-50.76 45.03-44.75 109.07-53.16 113.98-48.8 4.7 4.44-2.21 70.35-47.26 115.1z" fill="#68d072"/><path d="M1776.817889 92.079111c-9.72 9.73-25.46 9.73-35.18 0-9.71-9.73-9.71-25.51 0-35.23 9.72-9.74 25.46-9.74 35.18 0 9.71 9.72 9.71 25.5 0 35.23z" fill="#000000"/><path d="M1776.817889 92.079111c-9.72 9.73-25.46 9.73-35.18 0-9.71-9.73-9.71-25.51 0-35.23 9.72-9.74 25.46-9.74 35.18 0 9.71 9.72 9.71 25.5 0 35.23z" fill="#000000"/><path d="M1768.107889 83.289111c-4.89 4.86-12.83 4.86-17.74 0-4.89-4.86-4.89-12.75 0-17.61 4.91-4.87 12.85-4.87 17.74 0 4.89 4.86 4.89 12.75 0 17.61z" fill="#000000"/><path d="M1768.107889 83.289111c-4.89 4.86-12.83 4.86-17.74 0-4.89-4.86-4.89-12.75 0-17.61 4.91-4.87 12.85-4.87 17.74 0 4.89 4.86 4.89 12.75 0 17.61z" fill="#ffffff"/></g><g><path d="M1900.019 174.278c-9.33 9.29-37.47 19.65-46.8 10.35-9.33-9.29 1.07-37.33 10.4-46.63 9.33-9.29 24.26-6.92 33.59 2.38 9.33 9.3 12.14 24.59 2.81 33.9z" fill="#ffce00"/><path d="M1950.424 194.353c-6.43-7.78-6.01-20.19-22.8-36.17-.02.1 6.12 1.08 13.3-5.42 16.59-12.78 45.61-36.07 45.61-36.18 14.05 29.14-20.25 96.97-36.11 77.77z" fill="#68d072"/><path d="M1843.794 87.143c8.43 6.5 21.81 6.15 39.13 23.1-.1.03-1.2-6.14 5.78-13.33 13.67-16.6 38.64-45.59 38.76-45.59-31.5-14.28-104.46 19.8-83.67 35.82z" fill="#000000"/><path d="M1843.794 87.143c8.43 6.5 21.81 6.15 39.13 23.1-.1.03-1.2-6.14 5.78-13.33 13.67-16.6 38.64-45.59 38.76-45.59-31.5-14.28-104.46 19.8-83.67 35.82zM1950.424 194.353c-6.43-7.78-6.01-20.19-22.8-36.17-.02.1 6.12 1.08 13.3-5.42 16.59-12.78 45.61-36.07 45.61-36.18 14.05 29.14-20.25 96.97-36.11 77.77z" fill="#68d072"/><path d="M1912.234 48.013c-6.92 8.45-23.81 29.26-34.1 42.43-4.22 4.58-5.37 8.74-5.61 11.2 2.02 1.39 4.1 2.99 6.24 4.82.53-2.48 1.91-5.95 5.36-9.7 13.15-16.82 37.14-46.23 37.25-46.22-2.35-1.13-5-1.9-7.78-2.46-.27-.01-1.23-.06-1.36-.07z" fill="#000000"/><path d="M1912.234 48.013c-6.92 8.45-23.81 29.26-34.1 42.43-4.22 4.58-5.37 8.74-5.61 11.2 2.02 1.39 4.1 2.99 6.24 4.82.53-2.48 1.91-5.95 5.36-9.7 13.15-16.82 37.14-46.23 37.25-46.22-2.35-1.13-5-1.9-7.78-2.46-.27-.01-1.23-.06-1.36-.07z" fill="#68d072"/><path d="M1941.104 154.033c-5.11 4.73-9.65 5.62-11.92 5.71 2.22 2.23 4.15 4.4 5.78 6.49 2.04.03 6.94-.61 12.47-5.72 12.95-10.21 33.23-26.76 41.93-33.95-.47-3.44-1.33-6.66-2.64-9.52-4.11 3.46-30.15 24.81-45.62 36.99z" fill="#000000"/><path d="M1941.104 154.033c-5.11 4.73-9.65 5.62-11.92 5.71 2.22 2.23 4.15 4.4 5.78 6.49 2.04.03 6.94-.61 12.47-5.72 12.95-10.21 33.23-26.76 41.93-33.95-.47-3.44-1.33-6.66-2.64-9.52-4.11 3.46-30.15 24.81-45.62 36.99z" fill="#68d072"/><path d="M1991.604 113.993c-27.9 27.71-46.4 38.44-50.83 42.28-12.24 5.55-20.36 8.54-44.63-15.58-24.21-24.05-19.55-30.72-14.18-42.24 3.98-4.47 15.02-23.04 42.92-50.76 45.03-44.75 109.07-53.16 113.98-48.8 4.7 4.44-2.21 70.35-47.26 115.1z" fill="#000000"/><path d="M1991.604 113.993c-27.9 27.71-46.4 38.44-50.83 42.28-12.24 5.55-20.36 8.54-44.63-15.58-24.21-24.05-19.55-30.72-14.18-42.24 3.98-4.47 15.02-23.04 42.92-50.76 45.03-44.75 109.07-53.16 113.98-48.8 4.7 4.44-2.21 70.35-47.26 115.1z" fill="#68d072"/><path d="M1982.554 90.343c-9.72 9.73-25.46 9.73-35.18 0-9.71-9.73-9.71-25.51 0-35.23 9.72-9.74 25.46-9.74 35.18 0 9.71 9.72 9.71 25.5 0 35.23z" fill="#000000"/><path d="M1982.554 90.343c-9.72 9.73-25.46 9.73-35.18 0-9.71-9.73-9.71-25.51 0-35.23 9.72-9.74 25.46-9.74 35.18 0 9.71 9.72 9.71 25.5 0 35.23z" fill="#000000"/><path d="M1973.844 81.553c-4.89 4.86-12.83 4.86-17.74 0-4.89-4.86-4.89-12.75 0-17.61 4.91-4.87 12.85-4.87 17.74 0 4.89 4.86 4.89 12.75 0 17.61z" fill="#000000"/><path d="M1973.844 81.553c-4.89 4.86-12.83 4.86-17.74 0-4.89-4.86-4.89-12.75 0-17.61 4.91-4.87 12.85-4.87 17.74 0 4.89 4.86 4.89 12.75 0 17.61z" fill="#ffffff"/></g><g><path d="M2103.139065 176.477838c-9.33 9.29-37.47 19.65-46.8 10.35-9.33-9.29 1.07-37.33 10.4-46.63 9.33-9.29 24.26-6.92 33.59 2.38 9.33 9.3 12.14 24.59 2.81 33.9z" fill="#ffce00"/><path d="M2156.854556 191.922444c-6.43-7.78-6.01-20.19-22.8-36.17-.02.1 6.12 1.08 13.3-5.42 16.59-12.78 45.61-36.07 45.61-36.18 14.05 29.14-20.25 96.97-36.11 77.77z" fill="#68d072"/><path d="M2050.224556 84.712444c8.43 6.5 21.81 6.15 39.13 23.1-.1.03-1.2-6.14 5.78-13.33 13.67-16.6 38.64-45.59 38.76-45.59-31.5-14.28-104.46 19.8-83.67 35.82z" fill="#000000"/><path d="M2050.224556 84.712444c8.43 6.5 21.81 6.15 39.13 23.1-.1.03-1.2-6.14 5.78-13.33 13.67-16.6 38.64-45.59 38.76-45.59-31.5-14.28-104.46 19.8-83.67 35.82zM2156.854556 191.922444c-6.43-7.78-6.01-20.19-22.8-36.17-.02.1 6.12 1.08 13.3-5.42 16.59-12.78 45.61-36.07 45.61-36.18 14.05 29.14-20.25 96.97-36.11 77.77z" fill="#68d072"/><path d="M2118.664556 45.582444c-6.92 8.45-23.81 29.26-34.1 42.43-4.22 4.58-5.37 8.74-5.61 11.2 2.02 1.39 4.1 2.99 6.24 4.82.53-2.48 1.91-5.95 5.36-9.7 13.15-16.82 37.14-46.23 37.25-46.22-2.35-1.13-5-1.9-7.78-2.46-.27-.01-1.23-.06-1.36-.07z" fill="#000000"/><path d="M2118.664556 45.582444c-6.92 8.45-23.81 29.26-34.1 42.43-4.22 4.58-5.37 8.74-5.61 11.2 2.02 1.39 4.1 2.99 6.24 4.82.53-2.48 1.91-5.95 5.36-9.7 13.15-16.82 37.14-46.23 37.25-46.22-2.35-1.13-5-1.9-7.78-2.46-.27-.01-1.23-.06-1.36-.07z" fill="#68d072"/><path d="M2147.534556 151.602444c-5.11 4.73-9.65 5.62-11.92 5.71 2.22 2.23 4.15 4.4 5.78 6.49 2.04.03 6.94-.61 12.47-5.72 12.95-10.21 33.23-26.76 41.93-33.95-.47-3.44-1.33-6.66-2.64-9.52-4.11 3.46-30.15 24.81-45.62 36.99z" fill="#000000"/><path d="M2147.534556 151.602444c-5.11 4.73-9.65 5.62-11.92 5.71 2.22 2.23 4.15 4.4 5.78 6.49 2.04.03 6.94-.61 12.47-5.72 12.95-10.21 33.23-26.76 41.93-33.95-.47-3.44-1.33-6.66-2.64-9.52-4.11 3.46-30.15 24.81-45.62 36.99z" fill="#68d072"/><path d="M2198.034556 111.562444c-27.9 27.71-46.4 38.44-50.83 42.28-12.24 5.55-20.36 8.54-44.63-15.58-24.21-24.05-19.55-30.72-14.18-42.24 3.98-4.47 15.02-23.04 42.92-50.76 45.03-44.75 109.07-53.16 113.98-48.8 4.7 4.44-2.21 70.35-47.26 115.1z" fill="#000000"/><path d="M2198.034556 111.562444c-27.9 27.71-46.4 38.44-50.83 42.28-12.24 5.55-20.36 8.54-44.63-15.58-24.21-24.05-19.55-30.72-14.18-42.24 3.98-4.47 15.02-23.04 42.92-50.76 45.03-44.75 109.07-53.16 113.98-48.8 4.7 4.44-2.21 70.35-47.26 115.1z" fill="#68d072"/><path d="M2188.984556 87.912444c-9.72 9.73-25.46 9.73-35.18 0-9.71-9.73-9.71-25.51 0-35.23 9.72-9.74 25.46-9.74 35.18 0 9.71 9.72 9.71 25.5 0 35.23z" fill="#000000"/><path d="M2188.984556 87.912444c-9.72 9.73-25.46 9.73-35.18 0-9.71-9.73-9.71-25.51 0-35.23 9.72-9.74 25.46-9.74 35.18 0 9.71 9.72 9.71 25.5 0 35.23z" fill="#000000"/><path d="M2180.274556 79.122444c-4.89 4.86-12.83 4.86-17.74 0-4.89-4.86-4.89-12.75 0-17.61 4.91-4.87 12.85-4.87 17.74 0 4.89 4.86 4.89 12.75 0 17.61z" fill="#000000"/><path d="M2180.274556 79.122444c-4.89 4.86-12.83 4.86-17.74 0-4.89-4.86-4.89-12.75 0-17.61 4.91-4.87 12.85-4.87 17.74 0 4.89 4.86 4.89 12.75 0 17.61z" fill="#ffffff"/></g><g><path d="M2306.192817 178.843458c-9.33 9.29-37.47 19.65-46.8 10.35-9.33-9.29 1.07-37.33 10.4-46.63 9.33-9.29 24.26-6.92 33.59 2.38 9.33 9.3 12.14 24.59 2.81 33.9z" fill="#ffce00"/><path d="M2363.979556 188.797444c-6.43-7.78-6.01-20.19-22.8-36.17-.02.1 6.12 1.08 13.3-5.42 16.59-12.78 45.61-36.07 45.61-36.18 14.05 29.14-20.25 96.97-36.11 77.77z" fill="#68d072"/><path d="M2257.349556 81.587444c8.43 6.5 21.81 6.15 39.13 23.1-.1.03-1.2-6.14 5.78-13.33 13.67-16.6 38.64-45.59 38.76-45.59-31.5-14.28-104.46 19.8-83.67 35.82z" fill="#000000"/><path d="M2257.349556 81.587444c8.43 6.5 21.81 6.15 39.13 23.1-.1.03-1.2-6.14 5.78-13.33 13.67-16.6 38.64-45.59 38.76-45.59-31.5-14.28-104.46 19.8-83.67 35.82zM2363.979556 188.797444c-6.43-7.78-6.01-20.19-22.8-36.17-.02.1 6.12 1.08 13.3-5.42 16.59-12.78 45.61-36.07 45.61-36.18 14.05 29.14-20.25 96.97-36.11 77.77z" fill="#68d072"/><path d="M2325.789556 42.457444c-6.92 8.45-23.81 29.26-34.1 42.43-4.22 4.58-5.37 8.74-5.61 11.2 2.02 1.39 4.1 2.99 6.24 4.82.53-2.48 1.91-5.95 5.36-9.7 13.15-16.82 37.14-46.23 37.25-46.22-2.35-1.13-5-1.9-7.78-2.46-.27-.01-1.23-.06-1.36-.07z" fill="#000000"/><path d="M2325.789556 42.457444c-6.92 8.45-23.81 29.26-34.1 42.43-4.22 4.58-5.37 8.74-5.61 11.2 2.02 1.39 4.1 2.99 6.24 4.82.53-2.48 1.91-5.95 5.36-9.7 13.15-16.82 37.14-46.23 37.25-46.22-2.35-1.13-5-1.9-7.78-2.46-.27-.01-1.23-.06-1.36-.07z" fill="#68d072"/><path d="M2354.659556 148.477444c-5.11 4.73-9.65 5.62-11.92 5.71 2.22 2.23 4.15 4.4 5.78 6.49 2.04.03 6.94-.61 12.47-5.72 12.95-10.21 33.23-26.76 41.93-33.95-.47-3.44-1.33-6.66-2.64-9.52-4.11 3.46-30.15 24.81-45.62 36.99z" fill="#000000"/><path d="M2354.659556 148.477444c-5.11 4.73-9.65 5.62-11.92 5.71 2.22 2.23 4.15 4.4 5.78 6.49 2.04.03 6.94-.61 12.47-5.72 12.95-10.21 33.23-26.76 41.93-33.95-.47-3.44-1.33-6.66-2.64-9.52-4.11 3.46-30.15 24.81-45.62 36.99z" fill="#68d072"/><path d="M2405.159556 108.437444c-27.9 27.71-46.4 38.44-50.83 42.28-12.24 5.55-20.36 8.54-44.63-15.58-24.21-24.05-19.55-30.72-14.18-42.24 3.98-4.47 15.02-23.04 42.92-50.76 45.03-44.75 109.07-53.16 113.98-48.8 4.7 4.44-2.21 70.35-47.26 115.1z" fill="#000000"/><path d="M2405.159556 108.437444c-27.9 27.71-46.4 38.44-50.83 42.28-12.24 5.55-20.36 8.54-44.63-15.58-24.21-24.05-19.55-30.72-14.18-42.24 3.98-4.47 15.02-23.04 42.92-50.76 45.03-44.75 109.07-53.16 113.98-48.8 4.7 4.44-2.21 70.35-47.26 115.1z" fill="#68d072"/><path d="M2396.109556 84.787444c-9.72 9.73-25.46 9.73-35.18 0-9.71-9.73-9.71-25.51 0-35.23 9.72-9.74 25.46-9.74 35.18 0 9.71 9.72 9.71 25.5 0 35.23z" fill="#000000"/><path d="M2396.109556 84.787444c-9.72 9.73-25.46 9.73-35.18 0-9.71-9.73-9.71-25.51 0-35.23 9.72-9.74 25.46-9.74 35.18 0 9.71 9.72 9.71 25.5 0 35.23z" fill="#000000"/><path d="M2387.399556 75.997444c-4.89 4.86-12.83 4.86-17.74 0-4.89-4.86-4.89-12.75 0-17.61 4.91-4.87 12.85-4.87 17.74 0 4.89 4.86 4.89 12.75 0 17.61z" fill="#000000"/><path d="M2387.399556 75.997444c-4.89 4.86-12.83 4.86-17.74 0-4.89-4.86-4.89-12.75 0-17.61 4.91-4.87 12.85-4.87 17.74 0 4.89 4.86 4.89 12.75 0 17.61z" fill="#ffffff"/></g><g><path d="M2510.019407 179.276984c-9.33 9.29-37.47 19.65-46.8 10.35-9.33-9.29 1.07-37.33 10.4-46.63 9.33-9.29 24.26-6.92 33.59 2.38 9.33 9.3 12.14 24.59 2.81 33.9z" fill="#ffce00"/><path d="M2571.799 184.978c-6.43-7.78-6.01-20.19-22.8-36.17-.02.1 6.12 1.08 13.3-5.42 16.59-12.78 45.61-36.07 45.61-36.18 14.05 29.14-20.25 96.97-36.11 77.77z" fill="#68d072"/><path d="M2465.169 77.768c8.43 6.5 21.81 6.15 39.13 23.1-.1.03-1.2-6.14 5.78-13.33 13.67-16.6 38.64-45.59 38.76-45.59-31.5-14.28-104.46 19.8-83.67 35.82z" fill="#000000"/><path d="M2465.169 77.768c8.43 6.5 21.81 6.15 39.13 23.1-.1.03-1.2-6.14 5.78-13.33 13.67-16.6 38.64-45.59 38.76-45.59-31.5-14.28-104.46 19.8-83.67 35.82zM2571.799 184.978c-6.43-7.78-6.01-20.19-22.8-36.17-.02.1 6.12 1.08 13.3-5.42 16.59-12.78 45.61-36.07 45.61-36.18 14.05 29.14-20.25 96.97-36.11 77.77z" fill="#68d072"/><path d="M2533.609 38.638c-6.92 8.45-23.81 29.26-34.1 42.43-4.22 4.58-5.37 8.74-5.61 11.2 2.02 1.39 4.1 2.99 6.24 4.82.53-2.48 1.91-5.95 5.36-9.7 13.15-16.82 37.14-46.23 37.25-46.22-2.35-1.13-5-1.9-7.78-2.46-.27-.01-1.23-.06-1.36-.07z" fill="#000000"/><path d="M2533.609 38.638c-6.92 8.45-23.81 29.26-34.1 42.43-4.22 4.58-5.37 8.74-5.61 11.2 2.02 1.39 4.1 2.99 6.24 4.82.53-2.48 1.91-5.95 5.36-9.7 13.15-16.82 37.14-46.23 37.25-46.22-2.35-1.13-5-1.9-7.78-2.46-.27-.01-1.23-.06-1.36-.07z" fill="#68d072"/><path d="M2562.479 144.658c-5.11 4.73-9.65 5.62-11.92 5.71 2.22 2.23 4.15 4.4 5.78 6.49 2.04.03 6.94-.61 12.47-5.72 12.95-10.21 33.23-26.76 41.93-33.95-.47-3.44-1.33-6.66-2.64-9.52-4.11 3.46-30.15 24.81-45.62 36.99z" fill="#000000"/><path d="M2562.479 144.658c-5.11 4.73-9.65 5.62-11.92 5.71 2.22 2.23 4.15 4.4 5.78 6.49 2.04.03 6.94-.61 12.47-5.72 12.95-10.21 33.23-26.76 41.93-33.95-.47-3.44-1.33-6.66-2.64-9.52-4.11 3.46-30.15 24.81-45.62 36.99z" fill="#68d072"/><path d="M2612.979 104.618c-27.9 27.71-46.4 38.44-50.83 42.28-12.24 5.55-20.36 8.54-44.63-15.58-24.21-24.05-19.55-30.72-14.18-42.24 3.98-4.47 15.02-23.04 42.92-50.76 45.03-44.75 109.07-53.16 113.98-48.8 4.7 4.44-2.21 70.35-47.26 115.1z" fill="#000000"/><path d="M2612.979 104.618c-27.9 27.71-46.4 38.44-50.83 42.28-12.24 5.55-20.36 8.54-44.63-15.58-24.21-24.05-19.55-30.72-14.18-42.24 3.98-4.47 15.02-23.04 42.92-50.76 45.03-44.75 109.07-53.16 113.98-48.8 4.7 4.44-2.21 70.35-47.26 115.1z" fill="#68d072"/><path d="M2603.929 80.968c-9.72 9.73-25.46 9.73-35.18 0-9.71-9.73-9.71-25.51 0-35.23 9.72-9.74 25.46-9.74 35.18 0 9.71 9.72 9.71 25.5 0 35.23z" fill="#000000"/><path d="M2603.929 80.968c-9.72 9.73-25.46 9.73-35.18 0-9.71-9.73-9.71-25.51 0-35.23 9.72-9.74 25.46-9.74 35.18 0 9.71 9.72 9.71 25.5 0 35.23z" fill="#000000"/><path d="M2595.219 72.178c-4.89 4.86-12.83 4.86-17.74 0-4.89-4.86-4.89-12.75 0-17.61 4.91-4.87 12.85-4.87 17.74 0 4.89 4.86 4.89 12.75 0 17.61z" fill="#000000"/><path d="M2595.219 72.178c-4.89 4.86-12.83 4.86-17.74 0-4.89-4.86-4.89-12.75 0-17.61 4.91-4.87 12.85-4.87 17.74 0 4.89 4.86 4.89 12.75 0 17.61z" fill="#ffffff"/></g><g><path d="M2714.896759 177.083604c-9.33 9.29-37.47 19.65-46.8 10.35-9.33-9.29 1.07-37.33 10.4-46.63 9.33-9.29 24.26-6.92 33.59 2.38 9.33 9.3 12.14 24.59 2.81 33.9z" fill="#ffce00"/><path d="M2780.312889 180.464111c-6.43-7.78-6.01-20.19-22.8-36.17-.02.1 6.12 1.08 13.3-5.42 16.59-12.78 45.61-36.07 45.61-36.18 14.05 29.14-20.25 96.97-36.11 77.77z" fill="#68d072"/><path d="M2673.682889 73.254111c8.43 6.5 21.81 6.15 39.13 23.1-.1.03-1.2-6.14 5.78-13.33 13.67-16.6 38.64-45.59 38.76-45.59-31.5-14.28-104.46 19.8-83.67 35.82z" fill="#000000"/><path d="M2673.682889 73.254111c8.43 6.5 21.81 6.15 39.13 23.1-.1.03-1.2-6.14 5.78-13.33 13.67-16.6 38.64-45.59 38.76-45.59-31.5-14.28-104.46 19.8-83.67 35.82zM2780.312889 180.464111c-6.43-7.78-6.01-20.19-22.8-36.17-.02.1 6.12 1.08 13.3-5.42 16.59-12.78 45.61-36.07 45.61-36.18 14.05 29.14-20.25 96.97-36.11 77.77z" fill="#68d072"/><path d="M2742.122889 34.124111c-6.92 8.45-23.81 29.26-34.1 42.43-4.22 4.58-5.37 8.74-5.61 11.2 2.02 1.39 4.1 2.99 6.24 4.82.53-2.48 1.91-5.95 5.36-9.7 13.15-16.82 37.14-46.23 37.25-46.22-2.35-1.13-5-1.9-7.78-2.46-.27-.01-1.23-.06-1.36-.07z" fill="#000000"/><path d="M2742.122889 34.124111c-6.92 8.45-23.81 29.26-34.1 42.43-4.22 4.58-5.37 8.74-5.61 11.2 2.02 1.39 4.1 2.99 6.24 4.82.53-2.48 1.91-5.95 5.36-9.7 13.15-16.82 37.14-46.23 37.25-46.22-2.35-1.13-5-1.9-7.78-2.46-.27-.01-1.23-.06-1.36-.07z" fill="#68d072"/><path d="M2770.992889 140.144111c-5.11 4.73-9.65 5.62-11.92 5.71 2.22 2.23 4.15 4.4 5.78 6.49 2.04.03 6.94-.61 12.47-5.72 12.95-10.21 33.23-26.76 41.93-33.95-.47-3.44-1.33-6.66-2.64-9.52-4.11 3.46-30.15 24.81-45.62 36.99z" fill="#000000"/><path d="M2770.992889 140.144111c-5.11 4.73-9.65 5.62-11.92 5.71 2.22 2.23 4.15 4.4 5.78 6.49 2.04.03 6.94-.61 12.47-5.72 12.95-10.21 33.23-26.76 41.93-33.95-.47-3.44-1.33-6.66-2.64-9.52-4.11 3.46-30.15 24.81-45.62 36.99z" fill="#68d072"/><path d="M2821.492889 100.104111c-27.9 27.71-46.4 38.44-50.83 42.28-12.24 5.55-20.36 8.54-44.63-15.58-24.21-24.05-19.55-30.72-14.18-42.24 3.98-4.47 15.02-23.04 42.92-50.76 45.03-44.75 109.07-53.16 113.98-48.8 4.7 4.44-2.21 70.35-47.26 115.1z" fill="#000000"/><path d="M2821.492889 100.104111c-27.9 27.71-46.4 38.44-50.83 42.28-12.24 5.55-20.36 8.54-44.63-15.58-24.21-24.05-19.55-30.72-14.18-42.24 3.98-4.47 15.02-23.04 42.92-50.76 45.03-44.75 109.07-53.16 113.98-48.8 4.7 4.44-2.21 70.35-47.26 115.1z" fill="#68d072"/><path d="M2812.442889 76.454111c-9.72 9.73-25.46 9.73-35.18 0-9.71-9.73-9.71-25.51 0-35.23 9.72-9.74 25.46-9.74 35.18 0 9.71 9.72 9.71 25.5 0 35.23z" fill="#000000"/><path d="M2812.442889 76.454111c-9.72 9.73-25.46 9.73-35.18 0-9.71-9.73-9.71-25.51 0-35.23 9.72-9.74 25.46-9.74 35.18 0 9.71 9.72 9.71 25.5 0 35.23z" fill="#000000"/><path d="M2803.732889 67.664111c-4.89 4.86-12.83 4.86-17.74 0-4.89-4.86-4.89-12.75 0-17.61 4.91-4.87 12.85-4.87 17.74 0 4.89 4.86 4.89 12.75 0 17.61z" fill="#000000"/><path d="M2803.732889 67.664111c-4.89 4.86-12.83 4.86-17.74 0-4.89-4.86-4.89-12.75 0-17.61 4.91-4.87 12.85-4.87 17.74 0 4.89 4.86 4.89 12.75 0 17.61z" fill="#ffffff"/></g><g><path d="M2919.868321 174.654697c-9.33 9.29-37.47 19.65-46.8 10.35-9.33-9.29 1.07-37.33 10.4-46.63 9.33-9.29 24.26-6.92 33.59 2.38 9.33 9.3 12.14 24.59 2.81 33.9z" fill="#ffce00"/><path d="M2989.521222 175.255778c-6.43-7.78-6.01-20.19-22.8-36.17-.02.1 6.12 1.08 13.3-5.42 16.59-12.78 45.61-36.07 45.61-36.18 14.05 29.14-20.25 96.97-36.11 77.77z" fill="#68d072"/><path d="M2882.891222 68.045778c8.43 6.5 21.81 6.15 39.13 23.1-.1.03-1.2-6.14 5.78-13.33 13.67-16.6 38.64-45.59 38.76-45.59-31.5-14.28-104.46 19.8-83.67 35.82z" fill="#000000"/><path d="M2882.891222 68.045778c8.43 6.5 21.81 6.15 39.13 23.1-.1.03-1.2-6.14 5.78-13.33 13.67-16.6 38.64-45.59 38.76-45.59-31.5-14.28-104.46 19.8-83.67 35.82zM2989.521222 175.255778c-6.43-7.78-6.01-20.19-22.8-36.17-.02.1 6.12 1.08 13.3-5.42 16.59-12.78 45.61-36.07 45.61-36.18 14.05 29.14-20.25 96.97-36.11 77.77z" fill="#68d072"/><path d="M2951.331222 28.915778c-6.92 8.45-23.81 29.26-34.1 42.43-4.22 4.58-5.37 8.74-5.61 11.2 2.02 1.39 4.1 2.99 6.24 4.82.53-2.48 1.91-5.95 5.36-9.7 13.15-16.82 37.14-46.23 37.25-46.22-2.35-1.13-5-1.9-7.78-2.46-.27-.01-1.23-.06-1.36-.07z" fill="#000000"/><path d="M2951.331222 28.915778c-6.92 8.45-23.81 29.26-34.1 42.43-4.22 4.58-5.37 8.74-5.61 11.2 2.02 1.39 4.1 2.99 6.24 4.82.53-2.48 1.91-5.95 5.36-9.7 13.15-16.82 37.14-46.23 37.25-46.22-2.35-1.13-5-1.9-7.78-2.46-.27-.01-1.23-.06-1.36-.07z" fill="#68d072"/><path d="M2980.201222 134.935778c-5.11 4.73-9.65 5.62-11.92 5.71 2.22 2.23 4.15 4.4 5.78 6.49 2.04.03 6.94-.61 12.47-5.72 12.95-10.21 33.23-26.76 41.93-33.95-.47-3.44-1.33-6.66-2.64-9.52-4.11 3.46-30.15 24.81-45.62 36.99z" fill="#000000"/><path d="M2980.201222 134.935778c-5.11 4.73-9.65 5.62-11.92 5.71 2.22 2.23 4.15 4.4 5.78 6.49 2.04.03 6.94-.61 12.47-5.72 12.95-10.21 33.23-26.76 41.93-33.95-.47-3.44-1.33-6.66-2.64-9.52-4.11 3.46-30.15 24.81-45.62 36.99z" fill="#68d072"/><path d="M3030.701222 94.895778c-27.9 27.71-46.4 38.44-50.83 42.28-12.24 5.55-20.36 8.54-44.63-15.58-24.21-24.05-19.55-30.72-14.18-42.24 3.98-4.47 15.02-23.04 42.92-50.76 45.03-44.75 109.07-53.16 113.98-48.8 4.7 4.44-2.21 70.35-47.26 115.1z" fill="#000000"/><path d="M3030.701222 94.895778c-27.9 27.71-46.4 38.44-50.83 42.28-12.24 5.55-20.36 8.54-44.63-15.58-24.21-24.05-19.55-30.72-14.18-42.24 3.98-4.47 15.02-23.04 42.92-50.76 45.03-44.75 109.07-53.16 113.98-48.8 4.7 4.44-2.21 70.35-47.26 115.1z" fill="#68d072"/><path d="M3021.651222 71.245778c-9.72 9.73-25.46 9.73-35.18 0-9.71-9.73-9.71-25.51 0-35.23 9.72-9.74 25.46-9.74 35.18 0 9.71 9.72 9.71 25.5 0 35.23z" fill="#000000"/><path d="M3021.651222 71.245778c-9.72 9.73-25.46 9.73-35.18 0-9.71-9.73-9.71-25.51 0-35.23 9.72-9.74 25.46-9.74 35.18 0 9.71 9.72 9.71 25.5 0 35.23z" fill="#000000"/><path d="M3012.941222 62.455778c-4.89 4.86-12.83 4.86-17.74 0-4.89-4.86-4.89-12.75 0-17.61 4.91-4.87 12.85-4.87 17.74 0 4.89 4.86 4.89 12.75 0 17.61z" fill="#000000"/><path d="M3012.941222 62.455778c-4.89 4.86-12.83 4.86-17.74 0-4.89-4.86-4.89-12.75 0-17.61 4.91-4.87 12.85-4.87 17.74 0 4.89 4.86 4.89 12.75 0 17.61z" fill="#ffffff"/></g><g><path d="M3124.019 174.278c-9.33 9.29-37.47 19.65-46.8 10.35-9.33-9.29 1.07-37.33 10.4-46.63 9.33-9.29 24.26-6.92 33.59 2.38 9.33 9.3 12.14 24.59 2.81 33.9z" fill="#ffce00"/><path d="M3199.424 169.353c-6.43-7.78-6.01-20.19-22.8-36.17-.02.1 6.12 1.08 13.3-5.42 16.59-12.78 45.61-36.07 45.61-36.18 14.05 29.14-20.25 96.97-36.11 77.77z" fill="#68d072"/><path d="M3092.794 62.143c8.43 6.5 21.81 6.15 39.13 23.1-.1.03-1.2-6.14 5.78-13.33 13.67-16.6 38.64-45.59 38.76-45.59-31.5-14.28-104.46 19.8-83.67 35.82z" fill="#000000"/><path d="M3092.794 62.143c8.43 6.5 21.81 6.15 39.13 23.1-.1.03-1.2-6.14 5.78-13.33 13.67-16.6 38.64-45.59 38.76-45.59-31.5-14.28-104.46 19.8-83.67 35.82zM3199.424 169.353c-6.43-7.78-6.01-20.19-22.8-36.17-.02.1 6.12 1.08 13.3-5.42 16.59-12.78 45.61-36.07 45.61-36.18 14.05 29.14-20.25 96.97-36.11 77.77z" fill="#68d072"/><path d="M3161.234 23.013c-6.92 8.45-23.81 29.26-34.1 42.43-4.22 4.58-5.37 8.74-5.61 11.2 2.02 1.39 4.1 2.99 6.24 4.82.53-2.48 1.91-5.95 5.36-9.7 13.15-16.82 37.14-46.23 37.25-46.22-2.35-1.13-5-1.9-7.78-2.46-.27-.01-1.23-.06-1.36-.07z" fill="#000000"/><path d="M3161.234 23.013c-6.92 8.45-23.81 29.26-34.1 42.43-4.22 4.58-5.37 8.74-5.61 11.2 2.02 1.39 4.1 2.99 6.24 4.82.53-2.48 1.91-5.95 5.36-9.7 13.15-16.82 37.14-46.23 37.25-46.22-2.35-1.13-5-1.9-7.78-2.46-.27-.01-1.23-.06-1.36-.07z" fill="#68d072"/><path d="M3190.104 129.033c-5.11 4.73-9.65 5.62-11.92 5.71 2.22 2.23 4.15 4.4 5.78 6.49 2.04.03 6.94-.61 12.47-5.72 12.95-10.21 33.23-26.76 41.93-33.95-.47-3.44-1.33-6.66-2.64-9.52-4.11 3.46-30.15 24.81-45.62 36.99z" fill="#000000"/><path d="M3190.104 129.033c-5.11 4.73-9.65 5.62-11.92 5.71 2.22 2.23 4.15 4.4 5.78 6.49 2.04.03 6.94-.61 12.47-5.72 12.95-10.21 33.23-26.76 41.93-33.95-.47-3.44-1.33-6.66-2.64-9.52-4.11 3.46-30.15 24.81-45.62 36.99z" fill="#68d072"/><path d="M3240.604 88.993c-27.9 27.71-46.4 38.44-50.83 42.28-12.24 5.55-20.36 8.54-44.63-15.58-24.21-24.05-19.55-30.72-14.18-42.24 3.98-4.47 15.02-23.04 42.92-50.76 45.03-44.75 109.07-53.16 113.98-48.8 4.7 4.44-2.21 70.35-47.26 115.1z" fill="#000000"/><path d="M3240.604 88.993c-27.9 27.71-46.4 38.44-50.83 42.28-12.24 5.55-20.36 8.54-44.63-15.58-24.21-24.05-19.55-30.72-14.18-42.24 3.98-4.47 15.02-23.04 42.92-50.76 45.03-44.75 109.07-53.16 113.98-48.8 4.7 4.44-2.21 70.35-47.26 115.1z" fill="#68d072"/><path d="M3231.554 65.343c-9.72 9.73-25.46 9.73-35.18 0-9.71-9.73-9.71-25.51 0-35.23 9.72-9.74 25.46-9.74 35.18 0 9.71 9.72 9.71 25.5 0 35.23z" fill="#000000"/><path d="M3231.554 65.343c-9.72 9.73-25.46 9.73-35.18 0-9.71-9.73-9.71-25.51 0-35.23 9.72-9.74 25.46-9.74 35.18 0 9.71 9.72 9.71 25.5 0 35.23z" fill="#000000"/><path d="M3222.844 56.553c-4.89 4.86-12.83 4.86-17.74 0-4.89-4.86-4.89-12.75 0-17.61 4.91-4.87 12.85-4.87 17.74 0 4.89 4.86 4.89 12.75 0 17.61z" fill="#000000"/><path d="M3222.844 56.553c-4.89 4.86-12.83 4.86-17.74 0-4.89-4.86-4.89-12.75 0-17.61 4.91-4.87 12.85-4.87 17.74 0 4.89 4.86 4.89 12.75 0 17.61z" fill="#ffffff"/></g><g><path d="M3328.019 174.278c-9.33 9.29-37.47 19.65-46.8 10.35-9.33-9.29 1.07-37.33 10.4-46.63 9.33-9.29 24.26-6.92 33.59 2.38 9.33 9.3 12.14 24.59 2.81 33.9z" fill="#ffce00"/><path d="M3410.021222 162.755778c-6.43-7.78-6.01-20.19-22.8-36.17-.02.1 6.12 1.08 13.3-5.42 16.59-12.78 45.61-36.07 45.61-36.18 14.05 29.14-20.25 96.97-36.11 77.77z" fill="#68d072"/><path d="M3303.391222 55.545778c8.43 6.5 21.81 6.15 39.13 23.1-.1.03-1.2-6.14 5.78-13.33 13.67-16.6 38.64-45.59 38.76-45.59-31.5-14.28-104.46 19.8-83.67 35.82z" fill="#000000"/><path d="M3303.391222 55.545778c8.43 6.5 21.81 6.15 39.13 23.1-.1.03-1.2-6.14 5.78-13.33 13.67-16.6 38.64-45.59 38.76-45.59-31.5-14.28-104.46 19.8-83.67 35.82zM3410.021222 162.755778c-6.43-7.78-6.01-20.19-22.8-36.17-.02.1 6.12 1.08 13.3-5.42 16.59-12.78 45.61-36.07 45.61-36.18 14.05 29.14-20.25 96.97-36.11 77.77z" fill="#68d072"/><path d="M3371.831222 16.415778c-6.92 8.45-23.81 29.26-34.1 42.43-4.22 4.58-5.37 8.74-5.61 11.2 2.02 1.39 4.1 2.99 6.24 4.82.53-2.48 1.91-5.95 5.36-9.7 13.15-16.82 37.14-46.23 37.25-46.22-2.35-1.13-5-1.9-7.78-2.46-.27-.01-1.23-.06-1.36-.07z" fill="#000000"/><path d="M3371.831222 16.415778c-6.92 8.45-23.81 29.26-34.1 42.43-4.22 4.58-5.37 8.74-5.61 11.2 2.02 1.39 4.1 2.99 6.24 4.82.53-2.48 1.91-5.95 5.36-9.7 13.15-16.82 37.14-46.23 37.25-46.22-2.35-1.13-5-1.9-7.78-2.46-.27-.01-1.23-.06-1.36-.07z" fill="#68d072"/><path d="M3400.701222 122.435778c-5.11 4.73-9.65 5.62-11.92 5.71 2.22 2.23 4.15 4.4 5.78 6.49 2.04.03 6.94-.61 12.47-5.72 12.95-10.21 33.23-26.76 41.93-33.95-.47-3.44-1.33-6.66-2.64-9.52-4.11 3.46-30.15 24.81-45.62 36.99z" fill="#000000"/><path d="M3400.701222 122.435778c-5.11 4.73-9.65 5.62-11.92 5.71 2.22 2.23 4.15 4.4 5.78 6.49 2.04.03 6.94-.61 12.47-5.72 12.95-10.21 33.23-26.76 41.93-33.95-.47-3.44-1.33-6.66-2.64-9.52-4.11 3.46-30.15 24.81-45.62 36.99z" fill="#68d072"/><path d="M3451.201222 82.395778c-27.9 27.71-46.4 38.44-50.83 42.28-12.24 5.55-20.36 8.54-44.63-15.58-24.21-24.05-19.55-30.72-14.18-42.24 3.98-4.47 15.02-23.04 42.92-50.76 45.03-44.75 109.07-53.16 113.98-48.8 4.7 4.44-2.21 70.35-47.26 115.1z" fill="#000000"/><path d="M3451.201222 82.395778c-27.9 27.71-46.4 38.44-50.83 42.28-12.24 5.55-20.36 8.54-44.63-15.58-24.21-24.05-19.55-30.72-14.18-42.24 3.98-4.47 15.02-23.04 42.92-50.76 45.03-44.75 109.07-53.16 113.98-48.8 4.7 4.44-2.21 70.35-47.26 115.1z" fill="#68d072"/><path d="M3442.151222 58.745778c-9.72 9.73-25.46 9.73-35.18 0-9.71-9.73-9.71-25.51 0-35.23 9.72-9.74 25.46-9.74 35.18 0 9.71 9.72 9.71 25.5 0 35.23z" fill="#000000"/><path d="M3442.151222 58.745778c-9.72 9.73-25.46 9.73-35.18 0-9.71-9.73-9.71-25.51 0-35.23 9.72-9.74 25.46-9.74 35.18 0 9.71 9.72 9.71 25.5 0 35.23z" fill="#000000"/><path d="M3433.441222 49.955778c-4.89 4.86-12.83 4.86-17.74 0-4.89-4.86-4.89-12.75 0-17.61 4.91-4.87 12.85-4.87 17.74 0 4.89 4.86 4.89 12.75 0 17.61z" fill="#000000"/><path d="M3433.441222 49.955778c-4.89 4.86-12.83 4.86-17.74 0-4.89-4.86-4.89-12.75 0-17.61 4.91-4.87 12.85-4.87 17.74 0 4.89 4.86 4.89 12.75 0 17.61z" fill="#ffffff"/></g><g><path d="M3532.019 174.278c-9.33 9.29-37.47 19.65-46.8 10.35-9.33-9.29 1.07-37.33 10.4-46.63 9.33-9.29 24.26-6.92 33.59 2.38 9.33 9.3 12.14 24.59 2.81 33.9z" fill="#ffce00"/><path d="M3621.312889 155.464111c-6.43-7.78-6.01-20.19-22.8-36.17-.02.1 6.12 1.08 13.3-5.42 16.59-12.78 45.61-36.07 45.61-36.18 14.05 29.14-20.25 96.97-36.11 77.77z" fill="#68d072"/><path d="M3514.682889 48.254111c8.43 6.5 21.81 6.15 39.13 23.1-.1.03-1.2-6.14 5.78-13.33 13.67-16.6 38.64-45.59 38.76-45.59-31.5-14.28-104.46 19.8-83.67 35.82z" fill="#000000"/><path d="M3514.682889 48.254111c8.43 6.5 21.81 6.15 39.13 23.1-.1.03-1.2-6.14 5.78-13.33 13.67-16.6 38.64-45.59 38.76-45.59-31.5-14.28-104.46 19.8-83.67 35.82zM3621.312889 155.464111c-6.43-7.78-6.01-20.19-22.8-36.17-.02.1 6.12 1.08 13.3-5.42 16.59-12.78 45.61-36.07 45.61-36.18 14.05 29.14-20.25 96.97-36.11 77.77z" fill="#68d072"/><path d="M3583.122889 9.124111c-6.92 8.45-23.81 29.26-34.1 42.43-4.22 4.58-5.37 8.74-5.61 11.2 2.02 1.39 4.1 2.99 6.24 4.82.53-2.48 1.91-5.95 5.36-9.7 13.15-16.82 37.14-46.23 37.25-46.22-2.35-1.13-5-1.9-7.78-2.46-.27-.01-1.23-.06-1.36-.07z" fill="#000000"/><path d="M3583.122889 9.124111c-6.92 8.45-23.81 29.26-34.1 42.43-4.22 4.58-5.37 8.74-5.61 11.2 2.02 1.39 4.1 2.99 6.24 4.82.53-2.48 1.91-5.95 5.36-9.7 13.15-16.82 37.14-46.23 37.25-46.22-2.35-1.13-5-1.9-7.78-2.46-.27-.01-1.23-.06-1.36-.07z" fill="#68d072"/><path d="M3611.992889 115.144111c-5.11 4.73-9.65 5.62-11.92 5.71 2.22 2.23 4.15 4.4 5.78 6.49 2.04.03 6.94-.61 12.47-5.72 12.95-10.21 33.23-26.76 41.93-33.95-.47-3.44-1.33-6.66-2.64-9.52-4.11 3.46-30.15 24.81-45.62 36.99z" fill="#000000"/><path d="M3611.992889 115.144111c-5.11 4.73-9.65 5.62-11.92 5.71 2.22 2.23 4.15 4.4 5.78 6.49 2.04.03 6.94-.61 12.47-5.72 12.95-10.21 33.23-26.76 41.93-33.95-.47-3.44-1.33-6.66-2.64-9.52-4.11 3.46-30.15 24.81-45.62 36.99z" fill="#68d072"/><path d="M3662.492889 75.104111c-27.9 27.71-46.4 38.44-50.83 42.28-12.24 5.55-20.36 8.54-44.63-15.58-24.21-24.05-19.55-30.72-14.18-42.24 3.98-4.47 15.02-23.04 42.92-50.76 45.03-44.75 109.07-53.16 113.98-48.8 4.7 4.44-2.21 70.35-47.26 115.1z" fill="#000000"/><path d="M3662.492889 75.104111c-27.9 27.71-46.4 38.44-50.83 42.28-12.24 5.55-20.36 8.54-44.63-15.58-24.21-24.05-19.55-30.72-14.18-42.24 3.98-4.47 15.02-23.04 42.92-50.76 45.03-44.75 109.07-53.16 113.98-48.8 4.7 4.44-2.21 70.35-47.26 115.1z" fill="#68d072"/><path d="M3653.442889 51.454111c-9.72 9.73-25.46 9.73-35.18 0-9.71-9.73-9.71-25.51 0-35.23 9.72-9.74 25.46-9.74 35.18 0 9.71 9.72 9.71 25.5 0 35.23z" fill="#000000"/><path d="M3653.442889 51.454111c-9.72 9.73-25.46 9.73-35.18 0-9.71-9.73-9.71-25.51 0-35.23 9.72-9.74 25.46-9.74 35.18 0 9.71 9.72 9.71 25.5 0 35.23z" fill="#000000"/><path d="M3644.732889 42.664111c-4.89 4.86-12.83 4.86-17.74 0-4.89-4.86-4.89-12.75 0-17.61 4.91-4.87 12.85-4.87 17.74 0 4.89 4.86 4.89 12.75 0 17.61z" fill="#000000"/><path d="M3644.732889 42.664111c-4.89 4.86-12.83 4.86-17.74 0-4.89-4.86-4.89-12.75 0-17.61 4.91-4.87 12.85-4.87 17.74 0 4.89 4.86 4.89 12.75 0 17.61z" fill="#ffffff"/></g><g><path d="M3736.019 174.278c-9.33 9.29-37.47 19.65-46.8 10.35-9.33-9.29 1.07-37.33 10.4-46.63 9.33-9.29 24.26-6.92 33.59 2.38 9.33 9.3 12.14 24.59 2.81 33.9z" fill="#ffce00"/><path d="M3833.299 147.478c-6.43-7.78-6.01-20.19-22.8-36.17-.02.1 6.12 1.08 13.3-5.42 16.59-12.78 45.61-36.07 45.61-36.18 14.05 29.14-20.25 96.97-36.11 77.77z" fill="#68d072"/><path d="M3726.669 40.268c8.43 6.5 21.81 6.15 39.13 23.1-.1.03-1.2-6.14 5.78-13.33 13.67-16.6 38.64-45.59 38.76-45.59-31.5-14.28-104.46 19.8-83.67 35.82z" fill="#000000"/><path d="M3726.669 40.268c8.43 6.5 21.81 6.15 39.13 23.1-.1.03-1.2-6.14 5.78-13.33 13.67-16.6 38.64-45.59 38.76-45.59-31.5-14.28-104.46 19.8-83.67 35.82zM3833.299 147.478c-6.43-7.78-6.01-20.19-22.8-36.17-.02.1 6.12 1.08 13.3-5.42 16.59-12.78 45.61-36.07 45.61-36.18 14.05 29.14-20.25 96.97-36.11 77.77z" fill="#68d072"/><path d="M3795.109 1.138c-6.92 8.45-23.81 29.26-34.1 42.43-4.22 4.58-5.37 8.74-5.61 11.2 2.02 1.39 4.1 2.99 6.24 4.82.53-2.48 1.91-5.95 5.36-9.7 13.15-16.82 37.14-46.23 37.25-46.22-2.35-1.13-5-1.9-7.78-2.46-.27-.01-1.23-.06-1.36-.07z" fill="#000000"/><path d="M3795.109 1.138c-6.92 8.45-23.81 29.26-34.1 42.43-4.22 4.58-5.37 8.74-5.61 11.2 2.02 1.39 4.1 2.99 6.24 4.82.53-2.48 1.91-5.95 5.36-9.7 13.15-16.82 37.14-46.23 37.25-46.22-2.35-1.13-5-1.9-7.78-2.46-.27-.01-1.23-.06-1.36-.07z" fill="#68d072"/><path d="M3823.979 107.158c-5.11 4.73-9.65 5.62-11.92 5.71 2.22 2.23 4.15 4.4 5.78 6.49 2.04.03 6.94-.61 12.47-5.72 12.95-10.21 33.23-26.76 41.93-33.95-.47-3.44-1.33-6.66-2.64-9.52-4.11 3.46-30.15 24.81-45.62 36.99z" fill="#000000"/><path d="M3823.979 107.158c-5.11 4.73-9.65 5.62-11.92 5.71 2.22 2.23 4.15 4.4 5.78 6.49 2.04.03 6.94-.61 12.47-5.72 12.95-10.21 33.23-26.76 41.93-33.95-.47-3.44-1.33-6.66-2.64-9.52-4.11 3.46-30.15 24.81-45.62 36.99z" fill="#68d072"/><path d="M3874.479 67.118c-27.9 27.71-46.4 38.44-50.83 42.28-12.24 5.55-20.36 8.54-44.63-15.58-24.21-24.05-19.55-30.72-14.18-42.24 3.98-4.47 15.02-23.04 42.92-50.76 45.03-44.75 109.07-53.16 113.98-48.8 4.7 4.44-2.21 70.35-47.26 115.1z" fill="#000000"/><path d="M3874.479 67.118c-27.9 27.71-46.4 38.44-50.83 42.28-12.24 5.55-20.36 8.54-44.63-15.58-24.21-24.05-19.55-30.72-14.18-42.24 3.98-4.47 15.02-23.04 42.92-50.76 45.03-44.75 109.07-53.16 113.98-48.8 4.7 4.44-2.21 70.35-47.26 115.1z" fill="#68d072"/><path d="M3865.429 43.468c-9.72 9.73-25.46 9.73-35.18 0-9.71-9.73-9.71-25.51 0-35.23 9.72-9.74 25.46-9.74 35.18 0 9.71 9.72 9.71 25.5 0 35.23z" fill="#000000"/><path d="M3865.429 43.468c-9.72 9.73-25.46 9.73-35.18 0-9.71-9.73-9.71-25.51 0-35.23 9.72-9.74 25.46-9.74 35.18 0 9.71 9.72 9.71 25.5 0 35.23z" fill="#000000"/><path d="M3856.719 34.678c-4.89 4.86-12.83 4.86-17.74 0-4.89-4.86-4.89-12.75 0-17.61 4.91-4.87 12.85-4.87 17.74 0 4.89 4.86 4.89 12.75 0 17.61z" fill="#000000"/><path d="M3856.719 34.678c-4.89 4.86-12.83 4.86-17.74 0-4.89-4.86-4.89-12.75 0-17.61 4.91-4.87 12.85-4.87 17.74 0 4.89 4.86 4.89 12.75 0 17.61z" fill="#ffffff"/></g><g><path d="M3940.019 174.278c-9.33 9.29-37.47 19.65-46.8 10.35-9.33-9.29 1.07-37.33 10.4-46.63 9.33-9.29 24.26-6.92 33.59 2.38 9.33 9.3 12.14 24.59 2.81 33.9z" fill="#ffce00"/><path d="M4045.979556 138.797444c-6.43-7.78-6.01-20.19-22.8-36.17-.02.1 6.12 1.08 13.3-5.42 16.59-12.78 45.61-36.07 45.61-36.18 14.05 29.14-20.25 96.97-36.11 77.77z" fill="#68d072"/><path d="M3939.349556 31.587444c8.43 6.5 21.81 6.15 39.13 23.1-.1.03-1.2-6.14 5.78-13.33 13.67-16.6 38.64-45.59 38.76-45.59-31.5-14.28-104.46 19.8-83.67 35.82z" fill="#000000"/><path d="M3939.349556 31.587444c8.43 6.5 21.81 6.15 39.13 23.1-.1.03-1.2-6.14 5.78-13.33 13.67-16.6 38.64-45.59 38.76-45.59-31.5-14.28-104.46 19.8-83.67 35.82zM4045.979556 138.797444c-6.43-7.78-6.01-20.19-22.8-36.17-.02.1 6.12 1.08 13.3-5.42 16.59-12.78 45.61-36.07 45.61-36.18 14.05 29.14-20.25 96.97-36.11 77.77z" fill="#68d072"/><path d="M4007.789556-7.542556c-6.92 8.45-23.81 29.26-34.1 42.43-4.22 4.58-5.37 8.74-5.61 11.2 2.02 1.39 4.1 2.99 6.24 4.82.53-2.48 1.91-5.95 5.36-9.7 13.15-16.82 37.14-46.23 37.25-46.22-2.35-1.13-5-1.9-7.78-2.46-.27-.01-1.23-.06-1.36-.07z" fill="#000000"/><path d="M4007.789556-7.542556c-6.92 8.45-23.81 29.26-34.1 42.43-4.22 4.58-5.37 8.74-5.61 11.2 2.02 1.39 4.1 2.99 6.24 4.82.53-2.48 1.91-5.95 5.36-9.7 13.15-16.82 37.14-46.23 37.25-46.22-2.35-1.13-5-1.9-7.78-2.46-.27-.01-1.23-.06-1.36-.07z" fill="#68d072"/><path d="M4036.659556 98.477444c-5.11 4.73-9.65 5.62-11.92 5.71 2.22 2.23 4.15 4.4 5.78 6.49 2.04.03 6.94-.61 12.47-5.72 12.95-10.21 33.23-26.76 41.93-33.95-.47-3.44-1.33-6.66-2.64-9.52-4.11 3.46-30.15 24.81-45.62 36.99z" fill="#000000"/><path d="M4036.659556 98.477444c-5.11 4.73-9.65 5.62-11.92 5.71 2.22 2.23 4.15 4.4 5.78 6.49 2.04.03 6.94-.61 12.47-5.72 12.95-10.21 33.23-26.76 41.93-33.95-.47-3.44-1.33-6.66-2.64-9.52-4.11 3.46-30.15 24.81-45.62 36.99z" fill="#68d072"/><path d="M4087.159556 58.437444c-27.9 27.71-46.4 38.44-50.83 42.28-12.24 5.55-20.36 8.54-44.63-15.58-24.21-24.05-19.55-30.72-14.18-42.24 3.98-4.47 15.02-23.04 42.92-50.76 45.03-44.75 109.07-53.16 113.98-48.8 4.7 4.44-2.21 70.35-47.26 115.1z" fill="#000000"/><path d="M4087.159556 58.437444c-27.9 27.71-46.4 38.44-50.83 42.28-12.24 5.55-20.36 8.54-44.63-15.58-24.21-24.05-19.55-30.72-14.18-42.24 3.98-4.47 15.02-23.04 42.92-50.76 45.03-44.75 109.07-53.16 113.98-48.8 4.7 4.44-2.21 70.35-47.26 115.1z" fill="#68d072"/><path d="M4078.109556 34.787444c-9.72 9.73-25.46 9.73-35.18 0-9.71-9.73-9.71-25.51 0-35.23 9.72-9.74 25.46-9.74 35.18 0 9.71 9.72 9.71 25.5 0 35.23z" fill="#000000"/><path d="M4078.109556 34.787444c-9.72 9.73-25.46 9.73-35.18 0-9.71-9.73-9.71-25.51 0-35.23 9.72-9.74 25.46-9.74 35.18 0 9.71 9.72 9.71 25.5 0 35.23z" fill="#000000"/><path d="M4069.399556 25.997444c-4.89 4.86-12.83 4.86-17.74 0-4.89-4.86-4.89-12.75 0-17.61 4.91-4.87 12.85-4.87 17.74 0 4.89 4.86 4.89 12.75 0 17.61z" fill="#000000"/><path d="M4069.399556 25.997444c-4.89 4.86-12.83 4.86-17.74 0-4.89-4.86-4.89-12.75 0-17.61 4.91-4.87 12.85-4.87 17.74 0 4.89 4.86 4.89 12.75 0 17.61z" fill="#ffffff"/></g><g><path d="M4144.019 174.278c-9.33 9.29-37.47 19.65-46.8 10.35-9.33-9.29 1.07-37.33 10.4-46.63 9.33-9.29 24.26-6.92 33.59 2.38 9.33 9.3 12.14 24.59 2.81 33.9z" fill="#ffce00"/><path d="M4259.354556 129.422444c-6.43-7.78-6.01-20.19-22.8-36.17-.02.1 6.12 1.08 13.3-5.42 16.59-12.78 45.61-36.07 45.61-36.18 14.05 29.14-20.25 96.97-36.11 77.77z" fill="#68d072"/><path d="M4152.724556 22.212444c8.43 6.5 21.81 6.15 39.13 23.1-.1.03-1.2-6.14 5.78-13.33 13.67-16.6 38.64-45.59 38.76-45.59-31.5-14.28-104.46 19.8-83.67 35.82z" fill="#000000"/><path d="M4152.724556 22.212444c8.43 6.5 21.81 6.15 39.13 23.1-.1.03-1.2-6.14 5.78-13.33 13.67-16.6 38.64-45.59 38.76-45.59-31.5-14.28-104.46 19.8-83.67 35.82zM4259.354556 129.422444c-6.43-7.78-6.01-20.19-22.8-36.17-.02.1 6.12 1.08 13.3-5.42 16.59-12.78 45.61-36.07 45.61-36.18 14.05 29.14-20.25 96.97-36.11 77.77z" fill="#68d072"/><path d="M4221.164556-16.917556c-6.92 8.45-23.81 29.26-34.1 42.43-4.22 4.58-5.37 8.74-5.61 11.2 2.02 1.39 4.1 2.99 6.24 4.82.53-2.48 1.91-5.95 5.36-9.7 13.15-16.82 37.14-46.23 37.25-46.22-2.35-1.13-5-1.9-7.78-2.46-.27-.01-1.23-.06-1.36-.07z" fill="#000000"/><path d="M4221.164556-16.917556c-6.92 8.45-23.81 29.26-34.1 42.43-4.22 4.58-5.37 8.74-5.61 11.2 2.02 1.39 4.1 2.99 6.24 4.82.53-2.48 1.91-5.95 5.36-9.7 13.15-16.82 37.14-46.23 37.25-46.22-2.35-1.13-5-1.9-7.78-2.46-.27-.01-1.23-.06-1.36-.07z" fill="#68d072"/><path d="M4250.034556 89.102444c-5.11 4.73-9.65 5.62-11.92 5.71 2.22 2.23 4.15 4.4 5.78 6.49 2.04.03 6.94-.61 12.47-5.72 12.95-10.21 33.23-26.76 41.93-33.95-.47-3.44-1.33-6.66-2.64-9.52-4.11 3.46-30.15 24.81-45.62 36.99z" fill="#000000"/><path d="M4250.034556 89.102444c-5.11 4.73-9.65 5.62-11.92 5.71 2.22 2.23 4.15 4.4 5.78 6.49 2.04.03 6.94-.61 12.47-5.72 12.95-10.21 33.23-26.76 41.93-33.95-.47-3.44-1.33-6.66-2.64-9.52-4.11 3.46-30.15 24.81-45.62 36.99z" fill="#68d072"/><path d="M4300.534556 49.062444c-27.9 27.71-46.4 38.44-50.83 42.28-12.24 5.55-20.36 8.54-44.63-15.58-24.21-24.05-19.55-30.72-14.18-42.24 3.98-4.47 15.02-23.04 42.92-50.76 45.03-44.75 109.07-53.16 113.98-48.8 4.7 4.44-2.21 70.35-47.26 115.1z" fill="#000000"/><path d="M4300.534556 49.062444c-27.9 27.71-46.4 38.44-50.83 42.28-12.24 5.55-20.36 8.54-44.63-15.58-24.21-24.05-19.55-30.72-14.18-42.24 3.98-4.47 15.02-23.04 42.92-50.76 45.03-44.75 109.07-53.16 113.98-48.8 4.7 4.44-2.21 70.35-47.26 115.1z" fill="#68d072"/><path d="M4291.484556 25.412444c-9.72 9.73-25.46 9.73-35.18 0-9.71-9.73-9.71-25.51 0-35.23 9.72-9.74 25.46-9.74 35.18 0 9.71 9.72 9.71 25.5 0 35.23z" fill="#000000"/><path d="M4291.484556 25.412444c-9.72 9.73-25.46 9.73-35.18 0-9.71-9.73-9.71-25.51 0-35.23 9.72-9.74 25.46-9.74 35.18 0 9.71 9.72 9.71 25.5 0 35.23z" fill="#000000"/><path d="M4282.774556 16.622444c-4.89 4.86-12.83 4.86-17.74 0-4.89-4.86-4.89-12.75 0-17.61 4.91-4.87 12.85-4.87 17.74 0 4.89 4.86 4.89 12.75 0 17.61z" fill="#000000"/><path d="M4282.774556 16.622444c-4.89 4.86-12.83 4.86-17.74 0-4.89-4.86-4.89-12.75 0-17.61 4.91-4.87 12.85-4.87 17.74 0 4.89 4.86 4.89 12.75 0 17.61z" fill="#ffffff"/></g><g><path d="M4348.019 174.278c-9.33 9.29-37.47 19.65-46.8 10.35-9.33-9.29 1.07-37.33 10.4-46.63 9.33-9.29 24.26-6.92 33.59 2.38 9.33 9.3 12.14 24.59 2.81 33.9z" fill="#ffce00"/><path d="M4473.424 119.353c-6.43-7.78-6.01-20.19-22.8-36.17-.02.1 6.12 1.08 13.3-5.42 16.59-12.78 45.61-36.07 45.61-36.18 14.05 29.14-20.25 96.97-36.11 77.77z" fill="#68d072"/><path d="M4366.794 12.143c8.43 6.5 21.81 6.15 39.13 23.1-.1.03-1.2-6.14 5.78-13.33 13.67-16.6 38.64-45.59 38.76-45.59-31.5-14.28-104.46 19.8-83.67 35.82z" fill="#000000"/><path d="M4366.794 12.143c8.43 6.5 21.81 6.15 39.13 23.1-.1.03-1.2-6.14 5.78-13.33 13.67-16.6 38.64-45.59 38.76-45.59-31.5-14.28-104.46 19.8-83.67 35.82zM4473.424 119.353c-6.43-7.78-6.01-20.19-22.8-36.17-.02.1 6.12 1.08 13.3-5.42 16.59-12.78 45.61-36.07 45.61-36.18 14.05 29.14-20.25 96.97-36.11 77.77z" fill="#68d072"/><path d="M4435.234-26.987c-6.92 8.45-23.81 29.26-34.1 42.43-4.22 4.58-5.37 8.74-5.61 11.2 2.02 1.39 4.1 2.99 6.24 4.82.53-2.48 1.91-5.95 5.36-9.7 13.15-16.82 37.14-46.23 37.25-46.22-2.35-1.13-5-1.9-7.78-2.46-.27-.01-1.23-.06-1.36-.07z" fill="#000000"/><path d="M4435.234-26.987c-6.92 8.45-23.81 29.26-34.1 42.43-4.22 4.58-5.37 8.74-5.61 11.2 2.02 1.39 4.1 2.99 6.24 4.82.53-2.48 1.91-5.95 5.36-9.7 13.15-16.82 37.14-46.23 37.25-46.22-2.35-1.13-5-1.9-7.78-2.46-.27-.01-1.23-.06-1.36-.07z" fill="#68d072"/><path d="M4464.104 79.033c-5.11 4.73-9.65 5.62-11.92 5.71 2.22 2.23 4.15 4.4 5.78 6.49 2.04.03 6.94-.61 12.47-5.72 12.95-10.21 33.23-26.76 41.93-33.95-.47-3.44-1.33-6.66-2.64-9.52-4.11 3.46-30.15 24.81-45.62 36.99z" fill="#000000"/><path d="M4464.104 79.033c-5.11 4.73-9.65 5.62-11.92 5.71 2.22 2.23 4.15 4.4 5.78 6.49 2.04.03 6.94-.61 12.47-5.72 12.95-10.21 33.23-26.76 41.93-33.95-.47-3.44-1.33-6.66-2.64-9.52-4.11 3.46-30.15 24.81-45.62 36.99z" fill="#68d072"/><path d="M4514.604 38.993c-27.9 27.71-46.4 38.44-50.83 42.28-12.24 5.55-20.36 8.54-44.63-15.58-24.21-24.05-19.55-30.72-14.18-42.24 3.98-4.47 15.02-23.04 42.92-50.76 45.03-44.75 109.07-53.16 113.98-48.8 4.7 4.44-2.21 70.35-47.26 115.1z" fill="#000000"/><path d="M4514.604 38.993c-27.9 27.71-46.4 38.44-50.83 42.28-12.24 5.55-20.36 8.54-44.63-15.58-24.21-24.05-19.55-30.72-14.18-42.24 3.98-4.47 15.02-23.04 42.92-50.76 45.03-44.75 109.07-53.16 113.98-48.8 4.7 4.44-2.21 70.35-47.26 115.1z" fill="#68d072"/><path d="M4505.554 15.343c-9.72 9.73-25.46 9.73-35.18 0-9.71-9.73-9.71-25.51 0-35.23 9.72-9.74 25.46-9.74 35.18 0 9.71 9.72 9.71 25.5 0 35.23z" fill="#000000"/><path d="M4505.554 15.343c-9.72 9.73-25.46 9.73-35.18 0-9.71-9.73-9.71-25.51 0-35.23 9.72-9.74 25.46-9.74 35.18 0 9.71 9.72 9.71 25.5 0 35.23z" fill="#000000"/><path d="M4496.844 6.553c-4.89 4.86-12.83 4.86-17.74 0-4.89-4.86-4.89-12.75 0-17.61 4.91-4.87 12.85-4.87 17.74 0 4.89 4.86 4.89 12.75 0 17.61z" fill="#000000"/><path d="M4496.844 6.553c-4.89 4.86-12.83 4.86-17.74 0-4.89-4.86-4.89-12.75 0-17.61 4.91-4.87 12.85-4.87 17.74 0 4.89 4.86 4.89 12.75 0 17.61z" fill="#ffffff"/></g><g><path d="M4552.019 174.278c-9.33 9.29-37.47 19.65-46.8 10.35-9.33-9.29 1.07-37.33 10.4-46.63 9.33-9.29 24.26-6.92 33.59 2.38 9.33 9.3 12.14 24.59 2.81 33.9z" fill="#ffce00"/><path d="M4688.187889 108.589111c-6.43-7.78-6.01-20.19-22.8-36.17-.02.1 6.12 1.08 13.3-5.42 16.59-12.78 45.61-36.07 45.61-36.18 14.05 29.14-20.25 96.97-36.11 77.77z" fill="#68d072"/><path d="M4581.557889 1.379111c8.43 6.5 21.81 6.15 39.13 23.1-.1.03-1.2-6.14 5.78-13.33 13.67-16.6 38.64-45.59 38.76-45.59-31.5-14.28-104.46 19.8-83.67 35.82z" fill="#000000"/><path d="M4581.557889 1.379111c8.43 6.5 21.81 6.15 39.13 23.1-.1.03-1.2-6.14 5.78-13.33 13.67-16.6 38.64-45.59 38.76-45.59-31.5-14.28-104.46 19.8-83.67 35.82zM4688.187889 108.589111c-6.43-7.78-6.01-20.19-22.8-36.17-.02.1 6.12 1.08 13.3-5.42 16.59-12.78 45.61-36.07 45.61-36.18 14.05 29.14-20.25 96.97-36.11 77.77z" fill="#68d072"/><path d="M4649.997889-37.750889c-6.92 8.45-23.81 29.26-34.1 42.43-4.22 4.58-5.37 8.74-5.61 11.2 2.02 1.39 4.1 2.99 6.24 4.82.53-2.48 1.91-5.95 5.36-9.7 13.15-16.82 37.14-46.23 37.25-46.22-2.35-1.13-5-1.9-7.78-2.46-.27-.01-1.23-.06-1.36-.07z" fill="#000000"/><path d="M4649.997889-37.750889c-6.92 8.45-23.81 29.26-34.1 42.43-4.22 4.58-5.37 8.74-5.61 11.2 2.02 1.39 4.1 2.99 6.24 4.82.53-2.48 1.91-5.95 5.36-9.7 13.15-16.82 37.14-46.23 37.25-46.22-2.35-1.13-5-1.9-7.78-2.46-.27-.01-1.23-.06-1.36-.07z" fill="#68d072"/><path d="M4678.867889 68.269111c-5.11 4.73-9.65 5.62-11.92 5.71 2.22 2.23 4.15 4.4 5.78 6.49 2.04.03 6.94-.61 12.47-5.72 12.95-10.21 33.23-26.76 41.93-33.95-.47-3.44-1.33-6.66-2.64-9.52-4.11 3.46-30.15 24.81-45.62 36.99z" fill="#000000"/><path d="M4678.867889 68.269111c-5.11 4.73-9.65 5.62-11.92 5.71 2.22 2.23 4.15 4.4 5.78 6.49 2.04.03 6.94-.61 12.47-5.72 12.95-10.21 33.23-26.76 41.93-33.95-.47-3.44-1.33-6.66-2.64-9.52-4.11 3.46-30.15 24.81-45.62 36.99z" fill="#68d072"/><path d="M4729.367889 28.229111c-27.9 27.71-46.4 38.44-50.83 42.28-12.24 5.55-20.36 8.54-44.63-15.58-24.21-24.05-19.55-30.72-14.18-42.24 3.98-4.47 15.02-23.04 42.92-50.76 45.03-44.75 109.07-53.16 113.98-48.8 4.7 4.44-2.21 70.35-47.26 115.1z" fill="#000000"/><path d="M4729.367889 28.229111c-27.9 27.71-46.4 38.44-50.83 42.28-12.24 5.55-20.36 8.54-44.63-15.58-24.21-24.05-19.55-30.72-14.18-42.24 3.98-4.47 15.02-23.04 42.92-50.76 45.03-44.75 109.07-53.16 113.98-48.8 4.7 4.44-2.21 70.35-47.26 115.1z" fill="#68d072"/><path d="M4720.317889 4.579111c-9.72 9.73-25.46 9.73-35.18 0-9.71-9.73-9.71-25.51 0-35.23 9.72-9.74 25.46-9.74 35.18 0 9.71 9.72 9.71 25.5 0 35.23z" fill="#000000"/><path d="M4720.317889 4.579111c-9.72 9.73-25.46 9.73-35.18 0-9.71-9.73-9.71-25.51 0-35.23 9.72-9.74 25.46-9.74 35.18 0 9.71 9.72 9.71 25.5 0 35.23z" fill="#000000"/><path d="M4711.607889-4.210889c-4.89 4.86-12.83 4.86-17.74 0-4.89-4.86-4.89-12.75 0-17.61 4.91-4.87 12.85-4.87 17.74 0 4.89 4.86 4.89 12.75 0 17.61z" fill="#000000"/><path d="M4711.607889-4.210889c-4.89 4.86-12.83 4.86-17.74 0-4.89-4.86-4.89-12.75 0-17.61 4.91-4.87 12.85-4.87 17.74 0 4.89 4.86 4.89 12.75 0 17.61z" fill="#ffffff"/></g><g><path d="M4756.019 174.278c-9.33 9.29-37.47 19.65-46.8 10.35-9.33-9.29 1.07-37.33 10.4-46.63 9.33-9.29 24.26-6.92 33.59 2.38 9.33 9.3 12.14 24.59 2.81 33.9z" fill="#ffce00"/><path d="M4903.646222 97.130778c-6.43-7.78-6.01-20.19-22.8-36.17-.02.1 6.12 1.08 13.3-5.42 16.59-12.78 45.61-36.07 45.61-36.18 14.05 29.14-20.25 96.97-36.11 77.77z" fill="#68d072"/><path d="M4797.016222-10.079222c8.43 6.5 21.81 6.15 39.13 23.1-.1.03-1.2-6.14 5.78-13.33 13.67-16.6 38.64-45.59 38.76-45.59-31.5-14.28-104.46 19.8-83.67 35.82z" fill="#000000"/><path d="M4797.016222-10.079222c8.43 6.5 21.81 6.15 39.13 23.1-.1.03-1.2-6.14 5.78-13.33 13.67-16.6 38.64-45.59 38.76-45.59-31.5-14.28-104.46 19.8-83.67 35.82zM4903.646222 97.130778c-6.43-7.78-6.01-20.19-22.8-36.17-.02.1 6.12 1.08 13.3-5.42 16.59-12.78 45.61-36.07 45.61-36.18 14.05 29.14-20.25 96.97-36.11 77.77z" fill="#68d072"/><path d="M4865.456222-49.209222c-6.92 8.45-23.81 29.26-34.1 42.43-4.22 4.58-5.37 8.74-5.61 11.2 2.02 1.39 4.1 2.99 6.24 4.82.53-2.48 1.91-5.95 5.36-9.7 13.15-16.82 37.14-46.23 37.25-46.22-2.35-1.13-5-1.9-7.78-2.46-.27-.01-1.23-.06-1.36-.07z" fill="#000000"/><path d="M4865.456222-49.209222c-6.92 8.45-23.81 29.26-34.1 42.43-4.22 4.58-5.37 8.74-5.61 11.2 2.02 1.39 4.1 2.99 6.24 4.82.53-2.48 1.91-5.95 5.36-9.7 13.15-16.82 37.14-46.23 37.25-46.22-2.35-1.13-5-1.9-7.78-2.46-.27-.01-1.23-.06-1.36-.07z" fill="#68d072"/><path d="M4894.326222 56.810778c-5.11 4.73-9.65 5.62-11.92 5.71 2.22 2.23 4.15 4.4 5.78 6.49 2.04.03 6.94-.61 12.47-5.72 12.95-10.21 33.23-26.76 41.93-33.95-.47-3.44-1.33-6.66-2.64-9.52-4.11 3.46-30.15 24.81-45.62 36.99z" fill="#000000"/><path d="M4894.326222 56.810778c-5.11 4.73-9.65 5.62-11.92 5.71 2.22 2.23 4.15 4.4 5.78 6.49 2.04.03 6.94-.61 12.47-5.72 12.95-10.21 33.23-26.76 41.93-33.95-.47-3.44-1.33-6.66-2.64-9.52-4.11 3.46-30.15 24.81-45.62 36.99z" fill="#68d072"/><path d="M4944.826222 16.770778c-27.9 27.71-46.4 38.44-50.83 42.28-12.24 5.55-20.36 8.54-44.63-15.58-24.21-24.05-19.55-30.72-14.18-42.24 3.98-4.47 15.02-23.04 42.92-50.76 45.03-44.75 109.07-53.16 113.98-48.8 4.7 4.44-2.21 70.35-47.26 115.1z" fill="#000000"/><path d="M4944.826222 16.770778c-27.9 27.71-46.4 38.44-50.83 42.28-12.24 5.55-20.36 8.54-44.63-15.58-24.21-24.05-19.55-30.72-14.18-42.24 3.98-4.47 15.02-23.04 42.92-50.76 45.03-44.75 109.07-53.16 113.98-48.8 4.7 4.44-2.21 70.35-47.26 115.1z" fill="#68d072"/><path d="M4935.776222-6.879222c-9.72 9.73-25.46 9.73-35.18 0-9.71-9.73-9.71-25.51 0-35.23 9.72-9.74 25.46-9.74 35.18 0 9.71 9.72 9.71 25.5 0 35.23z" fill="#000000"/><path d="M4935.776222-6.879222c-9.72 9.73-25.46 9.73-35.18 0-9.71-9.73-9.71-25.51 0-35.23 9.72-9.74 25.46-9.74 35.18 0 9.71 9.72 9.71 25.5 0 35.23z" fill="#000000"/><path d="M4927.066222-15.669222c-4.89 4.86-12.83 4.86-17.74 0-4.89-4.86-4.89-12.75 0-17.61 4.91-4.87 12.85-4.87 17.74 0 4.89 4.86 4.89 12.75 0 17.61z" fill="#000000"/><path d="M4927.066222-15.669222c-4.89 4.86-12.83 4.86-17.74 0-4.89-4.86-4.89-12.75 0-17.61 4.91-4.87 12.85-4.87 17.74 0 4.89 4.86 4.89 12.75 0 17.61z" fill="#ffffff"/></g><g><path d="M4960.019 174.278c-9.33 9.29-37.47 19.65-46.8 10.35-9.33-9.29 1.07-37.33 10.4-46.63 9.33-9.29 24.26-6.92 33.59 2.38 9.33 9.3 12.14 24.59 2.81 33.9z" fill="#ffce00"/><path d="M5119.799 84.978c-6.43-7.78-6.01-20.19-22.8-36.17-.02.1 6.12 1.08 13.3-5.42 16.59-12.78 45.61-36.07 45.61-36.18 14.05 29.14-20.25 96.97-36.11 77.77z" fill="#68d072"/><path d="M5013.169-22.232c8.43 6.5 21.81 6.15 39.13 23.1-.1.03-1.2-6.14 5.78-13.33 13.67-16.6 38.64-45.59 38.76-45.59-31.5-14.28-104.46 19.8-83.67 35.82z" fill="#000000"/><path d="M5013.169-22.232c8.43 6.5 21.81 6.15 39.13 23.1-.1.03-1.2-6.14 5.78-13.33 13.67-16.6 38.64-45.59 38.76-45.59-31.5-14.28-104.46 19.8-83.67 35.82zM5119.799 84.978c-6.43-7.78-6.01-20.19-22.8-36.17-.02.1 6.12 1.08 13.3-5.42 16.59-12.78 45.61-36.07 45.61-36.18 14.05 29.14-20.25 96.97-36.11 77.77z" fill="#68d072"/><path d="M5081.609-61.362c-6.92 8.45-23.81 29.26-34.1 42.43-4.22 4.58-5.37 8.74-5.61 11.2 2.02 1.39 4.1 2.99 6.24 4.82.53-2.48 1.91-5.95 5.36-9.7 13.15-16.82 37.14-46.23 37.25-46.22-2.35-1.13-5-1.9-7.78-2.46-.27-.01-1.23-.06-1.36-.07z" fill="#000000"/><path d="M5081.609-61.362c-6.92 8.45-23.81 29.26-34.1 42.43-4.22 4.58-5.37 8.74-5.61 11.2 2.02 1.39 4.1 2.99 6.24 4.82.53-2.48 1.91-5.95 5.36-9.7 13.15-16.82 37.14-46.23 37.25-46.22-2.35-1.13-5-1.9-7.78-2.46-.27-.01-1.23-.06-1.36-.07z" fill="#68d072"/><path d="M5110.479 44.658c-5.11 4.73-9.65 5.62-11.92 5.71 2.22 2.23 4.15 4.4 5.78 6.49 2.04.03 6.94-.61 12.47-5.72 12.95-10.21 33.23-26.76 41.93-33.95-.47-3.44-1.33-6.66-2.64-9.52-4.11 3.46-30.15 24.81-45.62 36.99z" fill="#000000"/><path d="M5110.479 44.658c-5.11 4.73-9.65 5.62-11.92 5.71 2.22 2.23 4.15 4.4 5.78 6.49 2.04.03 6.94-.61 12.47-5.72 12.95-10.21 33.23-26.76 41.93-33.95-.47-3.44-1.33-6.66-2.64-9.52-4.11 3.46-30.15 24.81-45.62 36.99z" fill="#68d072"/><path d="M5160.979 4.618c-27.9 27.71-46.4 38.44-50.83 42.28-12.24 5.55-20.36 8.54-44.63-15.58-24.21-24.05-19.55-30.72-14.18-42.24 3.98-4.47 15.02-23.04 42.92-50.76 45.03-44.75 109.07-53.16 113.98-48.8 4.7 4.44-2.21 70.35-47.26 115.1z" fill="#000000"/><path d="M5160.979 4.618c-27.9 27.71-46.4 38.44-50.83 42.28-12.24 5.55-20.36 8.54-44.63-15.58-24.21-24.05-19.55-30.72-14.18-42.24 3.98-4.47 15.02-23.04 42.92-50.76 45.03-44.75 109.07-53.16 113.98-48.8 4.7 4.44-2.21 70.35-47.26 115.1z" fill="#68d072"/><path d="M5151.929-19.032c-9.72 9.73-25.46 9.73-35.18 0-9.71-9.73-9.71-25.51 0-35.23 9.72-9.74 25.46-9.74 35.18 0 9.71 9.72 9.71 25.5 0 35.23z" fill="#000000"/><path d="M5151.929-19.032c-9.72 9.73-25.46 9.73-35.18 0-9.71-9.73-9.71-25.51 0-35.23 9.72-9.74 25.46-9.74 35.18 0 9.71 9.72 9.71 25.5 0 35.23z" fill="#000000"/><path d="M5143.219-27.822c-4.89 4.86-12.83 4.86-17.74 0-4.89-4.86-4.89-12.75 0-17.61 4.91-4.87 12.85-4.87 17.74 0 4.89 4.86 4.89 12.75 0 17.61z" fill="#000000"/><path d="M5143.219-27.822c-4.89 4.86-12.83 4.86-17.74 0-4.89-4.86-4.89-12.75 0-17.61 4.91-4.87 12.85-4.87 17.74 0 4.89 4.86 4.89 12.75 0 17.61z" fill="#ffffff"/></g><g><path d="M5164.019 174.278c-9.33 9.29-37.47 19.65-46.8 10.35-9.33-9.29 1.07-37.33 10.4-46.63 9.33-9.29 24.26-6.92 33.59 2.38 9.33 9.3 12.14 24.59 2.81 33.9z" fill="#ffce00"/><path d="M5336.646222 72.130778c-6.43-7.78-6.01-20.19-22.8-36.17-.02.1 6.12 1.08 13.3-5.42 16.59-12.78 45.61-36.07 45.61-36.18 14.05 29.14-20.25 96.97-36.11 77.77z" fill="#68d072"/><path d="M5230.016222-35.079222c8.43 6.5 21.81 6.15 39.13 23.1-.1.03-1.2-6.14 5.78-13.33 13.67-16.6 38.64-45.59 38.76-45.59-31.5-14.28-104.46 19.8-83.67 35.82z" fill="#000000"/><path d="M5230.016222-35.079222c8.43 6.5 21.81 6.15 39.13 23.1-.1.03-1.2-6.14 5.78-13.33 13.67-16.6 38.64-45.59 38.76-45.59-31.5-14.28-104.46 19.8-83.67 35.82zM5336.646222 72.130778c-6.43-7.78-6.01-20.19-22.8-36.17-.02.1 6.12 1.08 13.3-5.42 16.59-12.78 45.61-36.07 45.61-36.18 14.05 29.14-20.25 96.97-36.11 77.77z" fill="#68d072"/><path d="M5298.456222-74.209222c-6.92 8.45-23.81 29.26-34.1 42.43-4.22 4.58-5.37 8.74-5.61 11.2 2.02 1.39 4.1 2.99 6.24 4.82.53-2.48 1.91-5.95 5.36-9.7 13.15-16.82 37.14-46.23 37.25-46.22-2.35-1.13-5-1.9-7.78-2.46-.27-.01-1.23-.06-1.36-.07z" fill="#000000"/><path d="M5298.456222-74.209222c-6.92 8.45-23.81 29.26-34.1 42.43-4.22 4.58-5.37 8.74-5.61 11.2 2.02 1.39 4.1 2.99 6.24 4.82.53-2.48 1.91-5.95 5.36-9.7 13.15-16.82 37.14-46.23 37.25-46.22-2.35-1.13-5-1.9-7.78-2.46-.27-.01-1.23-.06-1.36-.07z" fill="#68d072"/><path d="M5327.326222 31.810778c-5.11 4.73-9.65 5.62-11.92 5.71 2.22 2.23 4.15 4.4 5.78 6.49 2.04.03 6.94-.61 12.47-5.72 12.95-10.21 33.23-26.76 41.93-33.95-.47-3.44-1.33-6.66-2.64-9.52-4.11 3.46-30.15 24.81-45.62 36.99z" fill="#000000"/><path d="M5327.326222 31.810778c-5.11 4.73-9.65 5.62-11.92 5.71 2.22 2.23 4.15 4.4 5.78 6.49 2.04.03 6.94-.61 12.47-5.72 12.95-10.21 33.23-26.76 41.93-33.95-.47-3.44-1.33-6.66-2.64-9.52-4.11 3.46-30.15 24.81-45.62 36.99z" fill="#68d072"/><path d="M5377.826222-8.229222c-27.9 27.71-46.4 38.44-50.83 42.28-12.24 5.55-20.36 8.54-44.63-15.58-24.21-24.05-19.55-30.72-14.18-42.24 3.98-4.47 15.02-23.04 42.92-50.76 45.03-44.75 109.07-53.16 113.98-48.8 4.7 4.44-2.21 70.35-47.26 115.1z" fill="#000000"/><path d="M5377.826222-8.229222c-27.9 27.71-46.4 38.44-50.83 42.28-12.24 5.55-20.36 8.54-44.63-15.58-24.21-24.05-19.55-30.72-14.18-42.24 3.98-4.47 15.02-23.04 42.92-50.76 45.03-44.75 109.07-53.16 113.98-48.8 4.7 4.44-2.21 70.35-47.26 115.1z" fill="#68d072"/><path d="M5368.776222-31.879222c-9.72 9.73-25.46 9.73-35.18 0-9.71-9.73-9.71-25.51 0-35.23 9.72-9.74 25.46-9.74 35.18 0 9.71 9.72 9.71 25.5 0 35.23z" fill="#000000"/><path d="M5368.776222-31.879222c-9.72 9.73-25.46 9.73-35.18 0-9.71-9.73-9.71-25.51 0-35.23 9.72-9.74 25.46-9.74 35.18 0 9.71 9.72 9.71 25.5 0 35.23z" fill="#000000"/><path d="M5360.066222-40.669222c-4.89 4.86-12.83 4.86-17.74 0-4.89-4.86-4.89-12.75 0-17.61 4.91-4.87 12.85-4.87 17.74 0 4.89 4.86 4.89 12.75 0 17.61z" fill="#000000"/><path d="M5360.066222-40.669222c-4.89 4.86-12.83 4.86-17.74 0-4.89-4.86-4.89-12.75 0-17.61 4.91-4.87 12.85-4.87 17.74 0 4.89 4.86 4.89 12.75 0 17.61z" fill="#ffffff"/></g><g><path d="M5368.019 174.278c-9.33 9.29-37.47 19.65-46.8 10.35-9.33-9.29 1.07-37.33 10.4-46.63 9.33-9.29 24.26-6.92 33.59 2.38 9.33 9.3 12.14 24.59 2.81 33.9z" fill="#ffce00"/><path d="M5554.187889 58.589111c-6.43-7.78-6.01-20.19-22.8-36.17-.02.1 6.12 1.08 13.3-5.42 16.59-12.78 45.61-36.07 45.61-36.18 14.05 29.14-20.25 96.97-36.11 77.77z" fill="#68d072"/><path d="M5447.557889-48.620889c8.43 6.5 21.81 6.15 39.13 23.1-.1.03-1.2-6.14 5.78-13.33 13.67-16.6 38.64-45.59 38.76-45.59-31.5-14.28-104.46 19.8-83.67 35.82z" fill="#000000"/><path d="M5447.557889-48.620889c8.43 6.5 21.81 6.15 39.13 23.1-.1.03-1.2-6.14 5.78-13.33 13.67-16.6 38.64-45.59 38.76-45.59-31.5-14.28-104.46 19.8-83.67 35.82zM5554.187889 58.589111c-6.43-7.78-6.01-20.19-22.8-36.17-.02.1 6.12 1.08 13.3-5.42 16.59-12.78 45.61-36.07 45.61-36.18 14.05 29.14-20.25 96.97-36.11 77.77z" fill="#68d072"/><path d="M5515.997889-87.750889c-6.92 8.45-23.81 29.26-34.1 42.43-4.22 4.58-5.37 8.74-5.61 11.2 2.02 1.39 4.1 2.99 6.24 4.82.53-2.48 1.91-5.95 5.36-9.7 13.15-16.82 37.14-46.23 37.25-46.22-2.35-1.13-5-1.9-7.78-2.46-.27-.01-1.23-.06-1.36-.07z" fill="#000000"/><path d="M5515.997889-87.750889c-6.92 8.45-23.81 29.26-34.1 42.43-4.22 4.58-5.37 8.74-5.61 11.2 2.02 1.39 4.1 2.99 6.24 4.82.53-2.48 1.91-5.95 5.36-9.7 13.15-16.82 37.14-46.23 37.25-46.22-2.35-1.13-5-1.9-7.78-2.46-.27-.01-1.23-.06-1.36-.07z" fill="#68d072"/><path d="M5544.867889 18.269111c-5.11 4.73-9.65 5.62-11.92 5.71 2.22 2.23 4.15 4.4 5.78 6.49 2.04.03 6.94-.61 12.47-5.72 12.95-10.21 33.23-26.76 41.93-33.95-.47-3.44-1.33-6.66-2.64-9.52-4.11 3.46-30.15 24.81-45.62 36.99z" fill="#000000"/><path d="M5544.867889 18.269111c-5.11 4.73-9.65 5.62-11.92 5.71 2.22 2.23 4.15 4.4 5.78 6.49 2.04.03 6.94-.61 12.47-5.72 12.95-10.21 33.23-26.76 41.93-33.95-.47-3.44-1.33-6.66-2.64-9.52-4.11 3.46-30.15 24.81-45.62 36.99z" fill="#68d072"/><path d="M5595.367889-21.770889c-27.9 27.71-46.4 38.44-50.83 42.28-12.24 5.55-20.36 8.54-44.63-15.58-24.21-24.05-19.55-30.72-14.18-42.24 3.98-4.47 15.02-23.04 42.92-50.76 45.03-44.75 109.07-53.16 113.98-48.8 4.7 4.44-2.21 70.35-47.26 115.1z" fill="#000000"/><path d="M5595.367889-21.770889c-27.9 27.71-46.4 38.44-50.83 42.28-12.24 5.55-20.36 8.54-44.63-15.58-24.21-24.05-19.55-30.72-14.18-42.24 3.98-4.47 15.02-23.04 42.92-50.76 45.03-44.75 109.07-53.16 113.98-48.8 4.7 4.44-2.21 70.35-47.26 115.1z" fill="#68d072"/><path d="M5586.317889-45.420889c-9.72 9.73-25.46 9.73-35.18 0-9.71-9.73-9.71-25.51 0-35.23 9.72-9.74 25.46-9.74 35.18 0 9.71 9.72 9.71 25.5 0 35.23z" fill="#000000"/><path d="M5586.317889-45.420889c-9.72 9.73-25.46 9.73-35.18 0-9.71-9.73-9.71-25.51 0-35.23 9.72-9.74 25.46-9.74 35.18 0 9.71 9.72 9.71 25.5 0 35.23z" fill="#000000"/><path d="M5577.607889-54.210889c-4.89 4.86-12.83 4.86-17.74 0-4.89-4.86-4.89-12.75 0-17.61 4.91-4.87 12.85-4.87 17.74 0 4.89 4.86 4.89 12.75 0 17.61z" fill="#000000"/><path d="M5577.607889-54.210889c-4.89 4.86-12.83 4.86-17.74 0-4.89-4.86-4.89-12.75 0-17.61 4.91-4.87 12.85-4.87 17.74 0 4.89 4.86 4.89 12.75 0 17.61z" fill="#ffffff"/></g><g><path d="M5572.019 174.278c-9.33 9.29-37.47 19.65-46.8 10.35-9.33-9.29 1.07-37.33 10.4-46.63 9.33-9.29 24.26-6.92 33.59 2.38 9.33 9.3 12.14 24.59 2.81 33.9z" fill="#ffce00"/><path d="M5772.424 44.353c-6.43-7.78-6.01-20.19-22.8-36.17-.02.1 6.12 1.08 13.3-5.42 16.59-12.78 45.61-36.07 45.61-36.18 14.05 29.14-20.25 96.97-36.11 77.77z" fill="#68d072"/><path d="M5665.794-62.857c8.43 6.5 21.81 6.15 39.13 23.1-.1.03-1.2-6.14 5.78-13.33 13.67-16.6 38.64-45.59 38.76-45.59-31.5-14.28-104.46 19.8-83.67 35.82z" fill="#000000"/><path d="M5665.794-62.857c8.43 6.5 21.81 6.15 39.13 23.1-.1.03-1.2-6.14 5.78-13.33 13.67-16.6 38.64-45.59 38.76-45.59-31.5-14.28-104.46 19.8-83.67 35.82zM5772.424 44.353c-6.43-7.78-6.01-20.19-22.8-36.17-.02.1 6.12 1.08 13.3-5.42 16.59-12.78 45.61-36.07 45.61-36.18 14.05 29.14-20.25 96.97-36.11 77.77z" fill="#68d072"/><path d="M5734.234-101.987c-6.92 8.45-23.81 29.26-34.1 42.43-4.22 4.58-5.37 8.74-5.61 11.2 2.02 1.39 4.1 2.99 6.24 4.82.53-2.48 1.91-5.95 5.36-9.7 13.15-16.82 37.14-46.23 37.25-46.22-2.35-1.13-5-1.9-7.78-2.46-.27-.01-1.23-.06-1.36-.07z" fill="#000000"/><path d="M5734.234-101.987c-6.92 8.45-23.81 29.26-34.1 42.43-4.22 4.58-5.37 8.74-5.61 11.2 2.02 1.39 4.1 2.99 6.24 4.82.53-2.48 1.91-5.95 5.36-9.7 13.15-16.82 37.14-46.23 37.25-46.22-2.35-1.13-5-1.9-7.78-2.46-.27-.01-1.23-.06-1.36-.07z" fill="#68d072"/><path d="M5763.104 4.033c-5.11 4.73-9.65 5.62-11.92 5.71 2.22 2.23 4.15 4.4 5.78 6.49 2.04.03 6.94-.61 12.47-5.72 12.95-10.21 33.23-26.76 41.93-33.95-.47-3.44-1.33-6.66-2.64-9.52-4.11 3.46-30.15 24.81-45.62 36.99z" fill="#000000"/><path d="M5763.104 4.033c-5.11 4.73-9.65 5.62-11.92 5.71 2.22 2.23 4.15 4.4 5.78 6.49 2.04.03 6.94-.61 12.47-5.72 12.95-10.21 33.23-26.76 41.93-33.95-.47-3.44-1.33-6.66-2.64-9.52-4.11 3.46-30.15 24.81-45.62 36.99z" fill="#68d072"/><path d="M5813.604-36.007c-27.9 27.71-46.4 38.44-50.83 42.28-12.24 5.55-20.36 8.54-44.63-15.58-24.21-24.05-19.55-30.72-14.18-42.24 3.98-4.47 15.02-23.04 42.92-50.76 45.03-44.75 109.07-53.16 113.98-48.8 4.7 4.44-2.21 70.35-47.26 115.1z" fill="#000000"/><path d="M5813.604-36.007c-27.9 27.71-46.4 38.44-50.83 42.28-12.24 5.55-20.36 8.54-44.63-15.58-24.21-24.05-19.55-30.72-14.18-42.24 3.98-4.47 15.02-23.04 42.92-50.76 45.03-44.75 109.07-53.16 113.98-48.8 4.7 4.44-2.21 70.35-47.26 115.1z" fill="#68d072"/><path d="M5804.554-59.657c-9.72 9.73-25.46 9.73-35.18 0-9.71-9.73-9.71-25.51 0-35.23 9.72-9.74 25.46-9.74 35.18 0 9.71 9.72 9.71 25.5 0 35.23z" fill="#000000"/><path d="M5804.554-59.657c-9.72 9.73-25.46 9.73-35.18 0-9.71-9.73-9.71-25.51 0-35.23 9.72-9.74 25.46-9.74 35.18 0 9.71 9.72 9.71 25.5 0 35.23z" fill="#000000"/><path d="M5795.844-68.447c-4.89 4.86-12.83 4.86-17.74 0-4.89-4.86-4.89-12.75 0-17.61 4.91-4.87 12.85-4.87 17.74 0 4.89 4.86 4.89 12.75 0 17.61z" fill="#000000"/><path d="M5795.844-68.447c-4.89 4.86-12.83 4.86-17.74 0-4.89-4.86-4.89-12.75 0-17.61 4.91-4.87 12.85-4.87 17.74 0 4.89 4.86 4.89 12.75 0 17.61z" fill="#ffffff"/></g><g><path d="M5776.019 174.278c-9.33 9.29-37.47 19.65-46.8 10.35-9.33-9.29 1.07-37.33 10.4-46.63 9.33-9.29 24.26-6.92 33.59 2.38 9.33 9.3 12.14 24.59 2.81 33.9z" fill="#ffce00"/><path d="M5991.354556 29.422444c-6.43-7.78-6.01-20.19-22.8-36.17-.02.1 6.12 1.08 13.3-5.42 16.59-12.78 45.61-36.07 45.61-36.18 14.05 29.14-20.25 96.97-36.11 77.77z" fill="#68d072"/><path d="M5884.724556-77.787556c8.43 6.5 21.81 6.15 39.13 23.1-.1.03-1.2-6.14 5.78-13.33 13.67-16.6 38.64-45.59 38.76-45.59-31.5-14.28-104.46 19.8-83.67 35.82z" fill="#000000"/><path d="M5884.724556-77.787556c8.43 6.5 21.81 6.15 39.13 23.1-.1.03-1.2-6.14 5.78-13.33 13.67-16.6 38.64-45.59 38.76-45.59-31.5-14.28-104.46 19.8-83.67 35.82zM5991.354556 29.422444c-6.43-7.78-6.01-20.19-22.8-36.17-.02.1 6.12 1.08 13.3-5.42 16.59-12.78 45.61-36.07 45.61-36.18 14.05 29.14-20.25 96.97-36.11 77.77z" fill="#68d072"/><path d="M5953.164556-116.917556c-6.92 8.45-23.81 29.26-34.1 42.43-4.22 4.58-5.37 8.74-5.61 11.2 2.02 1.39 4.1 2.99 6.24 4.82.53-2.48 1.91-5.95 5.36-9.7 13.15-16.82 37.14-46.23 37.25-46.22-2.35-1.13-5-1.9-7.78-2.46-.27-.01-1.23-.06-1.36-.07z" fill="#000000"/><path d="M5953.164556-116.917556c-6.92 8.45-23.81 29.26-34.1 42.43-4.22 4.58-5.37 8.74-5.61 11.2 2.02 1.39 4.1 2.99 6.24 4.82.53-2.48 1.91-5.95 5.36-9.7 13.15-16.82 37.14-46.23 37.25-46.22-2.35-1.13-5-1.9-7.78-2.46-.27-.01-1.23-.06-1.36-.07z" fill="#68d072"/><path d="M5982.034556-10.897556c-5.11 4.73-9.65 5.62-11.92 5.71 2.22 2.23 4.15 4.4 5.78 6.49 2.04.03 6.94-.61 12.47-5.72 12.95-10.21 33.23-26.76 41.93-33.95-.47-3.44-1.33-6.66-2.64-9.52-4.11 3.46-30.15 24.81-45.62 36.99z" fill="#000000"/><path d="M5982.034556-10.897556c-5.11 4.73-9.65 5.62-11.92 5.71 2.22 2.23 4.15 4.4 5.78 6.49 2.04.03 6.94-.61 12.47-5.72 12.95-10.21 33.23-26.76 41.93-33.95-.47-3.44-1.33-6.66-2.64-9.52-4.11 3.46-30.15 24.81-45.62 36.99z" fill="#68d072"/><path d="M6032.534556-50.937556c-27.9 27.71-46.4 38.44-50.83 42.28-12.24 5.55-20.36 8.54-44.63-15.58-24.21-24.05-19.55-30.72-14.18-42.24 3.98-4.47 15.02-23.04 42.92-50.76 45.03-44.75 109.07-53.16 113.98-48.8 4.7 4.44-2.21 70.35-47.26 115.1z" fill="#000000"/><path d="M6032.534556-50.937556c-27.9 27.71-46.4 38.44-50.83 42.28-12.24 5.55-20.36 8.54-44.63-15.58-24.21-24.05-19.55-30.72-14.18-42.24 3.98-4.47 15.02-23.04 42.92-50.76 45.03-44.75 109.07-53.16 113.98-48.8 4.7 4.44-2.21 70.35-47.26 115.1z" fill="#68d072"/><path d="M6023.484556-74.587556c-9.72 9.73-25.46 9.73-35.18 0-9.71-9.73-9.71-25.51 0-35.23 9.72-9.74 25.46-9.74 35.18 0 9.71 9.72 9.71 25.5 0 35.23z" fill="#000000"/><path d="M6023.484556-74.587556c-9.72 9.73-25.46 9.73-35.18 0-9.71-9.73-9.71-25.51 0-35.23 9.72-9.74 25.46-9.74 35.18 0 9.71 9.72 9.71 25.5 0 35.23z" fill="#000000"/><path d="M6014.774556-83.377556c-4.89 4.86-12.83 4.86-17.74 0-4.89-4.86-4.89-12.75 0-17.61 4.91-4.87 12.85-4.87 17.74 0 4.89 4.86 4.89 12.75 0 17.61z" fill="#000000"/><path d="M6014.774556-83.377556c-4.89 4.86-12.83 4.86-17.74 0-4.89-4.86-4.89-12.75 0-17.61 4.91-4.87 12.85-4.87 17.74 0 4.89 4.86 4.89 12.75 0 17.61z" fill="#ffffff"/></g><g><path d="M5980.019 174.278c-9.33 9.29-37.47 19.65-46.8 10.35-9.33-9.29 1.07-37.33 10.4-46.63 9.33-9.29 24.26-6.92 33.59 2.38 9.33 9.3 12.14 24.59 2.81 33.9z" fill="#ffce00"/><path d="M6210.979556 13.797444c-6.43-7.78-6.01-20.19-22.8-36.17-.02.1 6.12 1.08 13.3-5.42 16.59-12.78 45.61-36.07 45.61-36.18 14.05 29.14-20.25 96.97-36.11 77.77z" fill="#68d072"/><path d="M6104.349556-93.412556c8.43 6.5 21.81 6.15 39.13 23.1-.1.03-1.2-6.14 5.78-13.33 13.67-16.6 38.64-45.59 38.76-45.59-31.5-14.28-104.46 19.8-83.67 35.82z" fill="#000000"/><path d="M6104.349556-93.412556c8.43 6.5 21.81 6.15 39.13 23.1-.1.03-1.2-6.14 5.78-13.33 13.67-16.6 38.64-45.59 38.76-45.59-31.5-14.28-104.46 19.8-83.67 35.82zM6210.979556 13.797444c-6.43-7.78-6.01-20.19-22.8-36.17-.02.1 6.12 1.08 13.3-5.42 16.59-12.78 45.61-36.07 45.61-36.18 14.05 29.14-20.25 96.97-36.11 77.77z" fill="#68d072"/><path d="M6172.789556-132.542556c-6.92 8.45-23.81 29.26-34.1 42.43-4.22 4.58-5.37 8.74-5.61 11.2 2.02 1.39 4.1 2.99 6.24 4.82.53-2.48 1.91-5.95 5.36-9.7 13.15-16.82 37.14-46.23 37.25-46.22-2.35-1.13-5-1.9-7.78-2.46-.27-.01-1.23-.06-1.36-.07z" fill="#000000"/><path d="M6172.789556-132.542556c-6.92 8.45-23.81 29.26-34.1 42.43-4.22 4.58-5.37 8.74-5.61 11.2 2.02 1.39 4.1 2.99 6.24 4.82.53-2.48 1.91-5.95 5.36-9.7 13.15-16.82 37.14-46.23 37.25-46.22-2.35-1.13-5-1.9-7.78-2.46-.27-.01-1.23-.06-1.36-.07z" fill="#68d072"/><path d="M6201.659556-26.522556c-5.11 4.73-9.65 5.62-11.92 5.71 2.22 2.23 4.15 4.4 5.78 6.49 2.04.03 6.94-.61 12.47-5.72 12.95-10.21 33.23-26.76 41.93-33.95-.47-3.44-1.33-6.66-2.64-9.52-4.11 3.46-30.15 24.81-45.62 36.99z" fill="#000000"/><path d="M6201.659556-26.522556c-5.11 4.73-9.65 5.62-11.92 5.71 2.22 2.23 4.15 4.4 5.78 6.49 2.04.03 6.94-.61 12.47-5.72 12.95-10.21 33.23-26.76 41.93-33.95-.47-3.44-1.33-6.66-2.64-9.52-4.11 3.46-30.15 24.81-45.62 36.99z" fill="#68d072"/><path d="M6252.159556-66.562556c-27.9 27.71-46.4 38.44-50.83 42.28-12.24 5.55-20.36 8.54-44.63-15.58-24.21-24.05-19.55-30.72-14.18-42.24 3.98-4.47 15.02-23.04 42.92-50.76 45.03-44.75 109.07-53.16 113.98-48.8 4.7 4.44-2.21 70.35-47.26 115.1z" fill="#000000"/><path d="M6252.159556-66.562556c-27.9 27.71-46.4 38.44-50.83 42.28-12.24 5.55-20.36 8.54-44.63-15.58-24.21-24.05-19.55-30.72-14.18-42.24 3.98-4.47 15.02-23.04 42.92-50.76 45.03-44.75 109.07-53.16 113.98-48.8 4.7 4.44-2.21 70.35-47.26 115.1z" fill="#68d072"/><path d="M6243.109556-90.212556c-9.72 9.73-25.46 9.73-35.18 0-9.71-9.73-9.71-25.51 0-35.23 9.72-9.74 25.46-9.74 35.18 0 9.71 9.72 9.71 25.5 0 35.23z" fill="#000000"/><path d="M6243.109556-90.212556c-9.72 9.73-25.46 9.73-35.18 0-9.71-9.73-9.71-25.51 0-35.23 9.72-9.74 25.46-9.74 35.18 0 9.71 9.72 9.71 25.5 0 35.23z" fill="#000000"/><path d="M6234.399556-99.002556c-4.89 4.86-12.83 4.86-17.74 0-4.89-4.86-4.89-12.75 0-17.61 4.91-4.87 12.85-4.87 17.74 0 4.89 4.86 4.89 12.75 0 17.61z" fill="#000000"/><path d="M6234.399556-99.002556c-4.89 4.86-12.83 4.86-17.74 0-4.89-4.86-4.89-12.75 0-17.61 4.91-4.87 12.85-4.87 17.74 0 4.89 4.86 4.89 12.75 0 17.61z" fill="#ffffff"/></g><g><path d="M6184.019 174.278c-9.33 9.29-37.47 19.65-46.8 10.35-9.33-9.29 1.07-37.33 10.4-46.63 9.33-9.29 24.26-6.92 33.59 2.38 9.33 9.3 12.14 24.59 2.81 33.9z" fill="#ffce00"/><path d="M6431.299-2.522c-6.43-7.78-6.01-20.19-22.8-36.17-.02.1 6.12 1.08 13.3-5.42 16.59-12.78 45.61-36.07 45.61-36.18 14.05 29.14-20.25 96.97-36.11 77.77z" fill="#68d072"/><path d="M6324.669-109.732c8.43 6.5 21.81 6.15 39.13 23.1-.1.03-1.2-6.14 5.78-13.33 13.67-16.6 38.64-45.59 38.76-45.59-31.5-14.28-104.46 19.8-83.67 35.82z" fill="#000000"/><path d="M6324.669-109.732c8.43 6.5 21.81 6.15 39.13 23.1-.1.03-1.2-6.14 5.78-13.33 13.67-16.6 38.64-45.59 38.76-45.59-31.5-14.28-104.46 19.8-83.67 35.82zM6431.299-2.522c-6.43-7.78-6.01-20.19-22.8-36.17-.02.1 6.12 1.08 13.3-5.42 16.59-12.78 45.61-36.07 45.61-36.18 14.05 29.14-20.25 96.97-36.11 77.77z" fill="#68d072"/><path d="M6393.109-148.862c-6.92 8.45-23.81 29.26-34.1 42.43-4.22 4.58-5.37 8.74-5.61 11.2 2.02 1.39 4.1 2.99 6.24 4.82.53-2.48 1.91-5.95 5.36-9.7 13.15-16.82 37.14-46.23 37.25-46.22-2.35-1.13-5-1.9-7.78-2.46-.27-.01-1.23-.06-1.36-.07z" fill="#000000"/><path d="M6393.109-148.862c-6.92 8.45-23.81 29.26-34.1 42.43-4.22 4.58-5.37 8.74-5.61 11.2 2.02 1.39 4.1 2.99 6.24 4.82.53-2.48 1.91-5.95 5.36-9.7 13.15-16.82 37.14-46.23 37.25-46.22-2.35-1.13-5-1.9-7.78-2.46-.27-.01-1.23-.06-1.36-.07z" fill="#68d072"/><path d="M6421.979-42.842c-5.11 4.73-9.65 5.62-11.92 5.71 2.22 2.23 4.15 4.4 5.78 6.49 2.04.03 6.94-.61 12.47-5.72 12.95-10.21 33.23-26.76 41.93-33.95-.47-3.44-1.33-6.66-2.64-9.52-4.11 3.46-30.15 24.81-45.62 36.99z" fill="#000000"/><path d="M6421.979-42.842c-5.11 4.73-9.65 5.62-11.92 5.71 2.22 2.23 4.15 4.4 5.78 6.49 2.04.03 6.94-.61 12.47-5.72 12.95-10.21 33.23-26.76 41.93-33.95-.47-3.44-1.33-6.66-2.64-9.52-4.11 3.46-30.15 24.81-45.62 36.99z" fill="#68d072"/><path d="M6472.479-82.882c-27.9 27.71-46.4 38.44-50.83 42.28-12.24 5.55-20.36 8.54-44.63-15.58-24.21-24.05-19.55-30.72-14.18-42.24 3.98-4.47 15.02-23.04 42.92-50.76 45.03-44.75 109.07-53.16 113.98-48.8 4.7 4.44-2.21 70.35-47.26 115.1z" fill="#000000"/><path d="M6472.479-82.882c-27.9 27.71-46.4 38.44-50.83 42.28-12.24 5.55-20.36 8.54-44.63-15.58-24.21-24.05-19.55-30.72-14.18-42.24 3.98-4.47 15.02-23.04 42.92-50.76 45.03-44.75 109.07-53.16 113.98-48.8 4.7 4.44-2.21 70.35-47.26 115.1z" fill="#68d072"/><path d="M6463.429-106.532c-9.72 9.73-25.46 9.73-35.18 0-9.71-9.73-9.71-25.51 0-35.23 9.72-9.74 25.46-9.74 35.18 0 9.71 9.72 9.71 25.5 0 35.23z" fill="#000000"/><path d="M6463.429-106.532c-9.72 9.73-25.46 9.73-35.18 0-9.71-9.73-9.71-25.51 0-35.23 9.72-9.74 25.46-9.74 35.18 0 9.71 9.72 9.71 25.5 0 35.23z" fill="#000000"/><path d="M6454.719-115.322c-4.89 4.86-12.83 4.86-17.74 0-4.89-4.86-4.89-12.75 0-17.61 4.91-4.87 12.85-4.87 17.74 0 4.89 4.86 4.89 12.75 0 17.61z" fill="#000000"/><path d="M6454.719-115.322c-4.89 4.86-12.83 4.86-17.74 0-4.89-4.86-4.89-12.75 0-17.61 4.91-4.87 12.85-4.87 17.74 0 4.89 4.86 4.89 12.75 0 17.61z" fill="#ffffff"/></g></svg>
