<svg width="538.1" height="75.001" viewBox="0 0 538.1 75.001" xmlns="http://www.w3.org/2000/svg"><g id="svgGroup" stroke-linecap="round" fill-rule="evenodd" font-size="9pt" stroke="#000" stroke-width="0.25mm" fill="none" style="stroke:#000;stroke-width:0.25mm;fill:none"><path d="M 0 66.2 L 3.7 58.4 A 26.441 26.441 0 0 0 8.585 61.844 Q 11.02 63.195 13.95 64.25 Q 20.2 66.5 26.8 66.5 Q 35.5 66.5 39.8 63.55 Q 44.1 60.6 44.1 55.7 Q 44.1 52.1 41.75 49.85 A 14.999 14.999 0 0 0 37.656 47.089 A 18.383 18.383 0 0 0 35.95 46.4 Q 33.309 45.481 28.997 44.387 A 194.276 194.276 0 0 0 26.2 43.7 Q 18.3 41.8 13.45 39.9 Q 8.6 38 5.15 34.05 A 13.389 13.389 0 0 1 2.291 28.477 Q 1.774 26.462 1.709 24.086 A 25.21 25.21 0 0 1 1.7 23.4 Q 1.7 17.8 4.65 13.3 Q 7.6 8.8 13.6 6.1 A 28.326 28.326 0 0 1 19.633 4.207 Q 23.633 3.4 28.5 3.4 Q 34.7 3.4 40.7 5 Q 46.7 6.6 51 9.6 L 47.7 17.6 Q 43.3 14.8 38.3 13.35 Q 33.3 11.9 28.5 11.9 A 37.61 37.61 0 0 0 24.055 12.145 Q 19.035 12.744 16.023 14.807 A 11.214 11.214 0 0 0 15.75 15 A 11.172 11.172 0 0 0 13.16 17.578 A 9.187 9.187 0 0 0 11.5 23 A 8.78 8.78 0 0 0 11.927 25.797 A 7.305 7.305 0 0 0 13.9 28.85 A 15.613 15.613 0 0 0 17.744 31.471 A 19.543 19.543 0 0 0 19.85 32.35 A 53.682 53.682 0 0 0 22.318 33.146 Q 25.108 33.978 28.948 34.872 A 179.584 179.584 0 0 0 29.5 35 Q 37.4 36.9 42.2 38.8 Q 47 40.7 50.45 44.6 A 13.217 13.217 0 0 1 53.352 50.269 Q 53.9 52.47 53.9 55.1 Q 53.9 60.6 50.9 65.15 A 17.863 17.863 0 0 1 46.093 69.99 A 24.936 24.936 0 0 1 41.8 72.35 Q 36.522 74.643 29.148 74.952 A 56.094 56.094 0 0 1 26.8 75 Q 18.9 75 11.55 72.55 Q 5.671 70.59 1.808 67.703 A 22.056 22.056 0 0 1 0 66.2 Z M 259.7 65.5 L 295.6 65.5 L 295.6 74.2 L 245.3 74.2 L 245.3 67.4 L 273.8 39.9 A 60.594 60.594 0 0 0 276.588 37.05 Q 279.167 34.22 280.458 31.901 A 14.742 14.742 0 0 0 280.8 31.25 A 17.493 17.493 0 0 0 282.336 26.725 A 15.324 15.324 0 0 0 282.6 23.9 A 12.58 12.58 0 0 0 282.081 20.191 A 9.683 9.683 0 0 0 278.75 15.35 Q 275.78 12.997 270.816 12.459 A 28.969 28.969 0 0 0 267.7 12.3 A 28.288 28.288 0 0 0 260.199 13.239 A 20.073 20.073 0 0 0 249.8 19.9 L 243 14 Q 247.1 9 253.75 6.2 A 35.77 35.77 0 0 1 263.868 3.647 A 44.302 44.302 0 0 1 268.6 3.4 Q 277.371 3.4 283.281 6.738 A 20.599 20.599 0 0 1 286.1 8.65 A 17.005 17.005 0 0 1 292.533 21.111 A 23.43 23.43 0 0 1 292.6 22.9 Q 292.6 28.5 290.2 33.5 Q 287.903 38.286 281.666 44.355 A 85.251 85.251 0 0 1 281.1 44.9 L 259.7 65.5 Z M 430.7 43.7 L 430.7 74.2 L 421.1 74.2 L 421.1 44.8 Q 421.1 37.1 417.4 33.2 Q 413.881 29.49 407.466 29.309 A 23.603 23.603 0 0 0 406.8 29.3 A 21.558 21.558 0 0 0 401.62 29.888 A 14.777 14.777 0 0 0 394.5 33.85 Q 390.431 37.964 390.041 45.307 A 30.046 30.046 0 0 0 390 46.9 L 390 74.2 L 380.4 74.2 L 380.4 0 L 390 0 L 390 28.7 A 19.356 19.356 0 0 1 396.38 23.498 A 23.301 23.301 0 0 1 397.85 22.8 A 25.518 25.518 0 0 1 405.239 20.885 A 31.595 31.595 0 0 1 408.7 20.7 A 28.186 28.186 0 0 1 415.558 21.489 A 19.646 19.646 0 0 1 424.75 26.55 A 18.658 18.658 0 0 1 429.468 34.544 Q 430.382 37.523 430.618 41.123 A 39.443 39.443 0 0 1 430.7 43.7 Z M 367.5 14.3 L 361 20.6 A 25.965 25.965 0 0 0 342.125 12.31 A 32.979 32.979 0 0 0 341.3 12.3 A 29.922 29.922 0 0 0 331.922 13.736 A 27.06 27.06 0 0 0 327.2 15.8 Q 320.9 19.3 317.35 25.45 A 26.728 26.728 0 0 0 313.822 38.021 A 31.837 31.837 0 0 0 313.8 39.2 A 28.01 28.01 0 0 0 315.403 48.758 A 25.955 25.955 0 0 0 317.35 52.95 Q 320.9 59.1 327.2 62.6 A 28.037 28.037 0 0 0 339.373 66.045 A 33.573 33.573 0 0 0 341.3 66.1 A 26.709 26.709 0 0 0 353.741 63.216 A 27.337 27.337 0 0 0 361 57.7 L 367.5 64 Q 362.7 69.4 355.85 72.2 A 37.994 37.994 0 0 1 344.446 74.856 A 45.512 45.512 0 0 1 340.8 75 Q 330.3 75 321.85 70.35 Q 313.4 65.7 308.6 57.55 A 34.97 34.97 0 0 1 303.85 41.251 A 42.078 42.078 0 0 1 303.8 39.2 A 37.191 37.191 0 0 1 305.722 27.112 A 33.842 33.842 0 0 1 308.6 20.85 Q 313.4 12.7 321.9 8.05 A 38.24 38.24 0 0 1 338.306 3.473 A 45.807 45.807 0 0 1 340.9 3.4 A 42.503 42.503 0 0 1 350.374 4.421 A 36.164 36.164 0 0 1 355.9 6.15 Q 362.7 8.9 367.5 14.3 Z M 150.5 42.2 L 150.5 74.2 L 141.4 74.2 L 141.4 67.2 A 14.761 14.761 0 0 1 135.923 72.181 A 18.406 18.406 0 0 1 134.55 72.85 A 22.26 22.26 0 0 1 129.398 74.364 Q 127.05 74.771 124.381 74.798 A 37.679 37.679 0 0 1 124 74.8 A 29.902 29.902 0 0 1 118.062 74.245 Q 113.177 73.255 109.75 70.5 A 13.649 13.649 0 0 1 104.455 60.594 A 17.308 17.308 0 0 1 104.4 59.2 Q 104.4 52.2 109.5 47.95 Q 114.6 43.7 125.7 43.7 L 140.9 43.7 L 140.9 41.8 A 17.106 17.106 0 0 0 140.512 38.043 Q 139.93 35.454 138.47 33.57 A 10.171 10.171 0 0 0 137.3 32.3 A 11.444 11.444 0 0 0 133.097 29.904 Q 130.364 29 126.7 29 Q 122 29 117.5 30.55 A 26.853 26.853 0 0 0 113.232 32.428 A 20.968 20.968 0 0 0 109.9 34.7 L 105.9 27.5 Q 110 24.2 115.7 22.45 A 40.498 40.498 0 0 1 126.408 20.721 A 45.995 45.995 0 0 1 127.8 20.7 A 35.883 35.883 0 0 1 134.318 21.254 Q 137.943 21.925 140.794 23.406 A 17.661 17.661 0 0 1 144.65 26.1 A 17.102 17.102 0 0 1 149.38 33.852 Q 150.22 36.602 150.43 39.923 A 36.1 36.1 0 0 1 150.5 42.2 Z M 490.5 42.2 L 490.5 74.2 L 481.4 74.2 L 481.4 67.2 A 14.761 14.761 0 0 1 475.923 72.181 A 18.406 18.406 0 0 1 474.55 72.85 A 22.26 22.26 0 0 1 469.398 74.364 Q 467.05 74.771 464.381 74.798 A 37.679 37.679 0 0 1 464 74.8 A 29.902 29.902 0 0 1 458.062 74.245 Q 453.177 73.255 449.75 70.5 A 13.649 13.649 0 0 1 444.455 60.594 A 17.308 17.308 0 0 1 444.4 59.2 Q 444.4 52.2 449.5 47.95 Q 454.6 43.7 465.7 43.7 L 480.9 43.7 L 480.9 41.8 A 17.106 17.106 0 0 0 480.512 38.043 Q 479.93 35.454 478.47 33.57 A 10.171 10.171 0 0 0 477.3 32.3 A 11.444 11.444 0 0 0 473.097 29.904 Q 470.364 29 466.7 29 Q 462 29 457.5 30.55 A 26.853 26.853 0 0 0 453.232 32.428 A 20.968 20.968 0 0 0 449.9 34.7 L 445.9 27.5 Q 450 24.2 455.7 22.45 A 40.498 40.498 0 0 1 466.408 20.721 A 45.995 45.995 0 0 1 467.8 20.7 A 35.883 35.883 0 0 1 474.318 21.254 Q 477.943 21.925 480.794 23.406 A 17.661 17.661 0 0 1 484.65 26.1 A 17.102 17.102 0 0 1 489.38 33.852 Q 490.22 36.602 490.43 39.923 A 36.1 36.1 0 0 1 490.5 42.2 Z M 93.9 64.2 L 96.9 71.1 A 13.094 13.094 0 0 1 93.884 73.018 A 16.903 16.903 0 0 1 91.7 73.85 Q 88.6 74.8 85.3 74.8 Q 78.96 74.8 74.881 72.099 A 13.455 13.455 0 0 1 72.9 70.5 Q 68.837 66.529 68.526 59.403 A 27.594 27.594 0 0 1 68.5 58.2 L 68.5 29.1 L 59.5 29.1 L 59.5 21.2 L 68.5 21.2 L 68.5 9.6 L 78.1 9.6 L 78.1 21.2 L 93.3 21.2 L 93.3 29.1 L 78.1 29.1 L 78.1 57.8 Q 78.1 60.89 79.21 62.947 A 6.948 6.948 0 0 0 80.25 64.4 A 6.955 6.955 0 0 0 83.66 66.377 Q 84.784 66.67 86.121 66.697 A 13.578 13.578 0 0 0 86.4 66.7 A 12.879 12.879 0 0 0 90.35 66.116 A 10.914 10.914 0 0 0 93.9 64.2 Z M 236.1 64.2 L 239.1 71.1 A 13.094 13.094 0 0 1 236.084 73.018 A 16.903 16.903 0 0 1 233.9 73.85 Q 230.8 74.8 227.5 74.8 Q 221.16 74.8 217.081 72.099 A 13.455 13.455 0 0 1 215.1 70.5 Q 211.037 66.529 210.726 59.403 A 27.594 27.594 0 0 1 210.7 58.2 L 210.7 29.1 L 201.7 29.1 L 201.7 21.2 L 210.7 21.2 L 210.7 9.6 L 220.3 9.6 L 220.3 21.2 L 235.5 21.2 L 235.5 29.1 L 220.3 29.1 L 220.3 57.8 Q 220.3 60.89 221.41 62.947 A 6.948 6.948 0 0 0 222.45 64.4 A 6.955 6.955 0 0 0 225.86 66.377 Q 226.984 66.67 228.321 66.697 A 13.578 13.578 0 0 0 228.6 66.7 A 12.879 12.879 0 0 0 232.55 66.116 A 10.914 10.914 0 0 0 236.1 64.2 Z M 535.1 64.2 L 538.1 71.1 A 13.094 13.094 0 0 1 535.084 73.018 A 16.903 16.903 0 0 1 532.9 73.85 Q 529.8 74.8 526.5 74.8 Q 520.16 74.8 516.081 72.099 A 13.455 13.455 0 0 1 514.1 70.5 Q 510.037 66.529 509.726 59.403 A 27.594 27.594 0 0 1 509.7 58.2 L 509.7 29.1 L 500.7 29.1 L 500.7 21.2 L 509.7 21.2 L 509.7 9.6 L 519.3 9.6 L 519.3 21.2 L 534.5 21.2 L 534.5 29.1 L 519.3 29.1 L 519.3 57.8 Q 519.3 60.89 520.41 62.947 A 6.948 6.948 0 0 0 521.45 64.4 A 6.955 6.955 0 0 0 524.86 66.377 Q 525.984 66.67 527.321 66.697 A 13.578 13.578 0 0 0 527.6 66.7 A 12.879 12.879 0 0 0 531.55 66.116 A 10.914 10.914 0 0 0 535.1 64.2 Z M 196.8 20.7 L 196.8 30 Q 196.077 29.91 194.865 29.901 A 36.807 36.807 0 0 0 194.6 29.9 A 21.049 21.049 0 0 0 189.439 30.497 A 14.501 14.501 0 0 0 182.35 34.55 A 15.091 15.091 0 0 0 178.814 40.817 Q 178.128 43.132 177.957 45.902 A 30.757 30.757 0 0 0 177.9 47.8 L 177.9 74.2 L 168.3 74.2 L 168.3 21.2 L 177.5 21.2 L 177.5 30.1 Q 180 25.5 184.9 23.1 Q 189.417 20.888 195.719 20.715 A 39.426 39.426 0 0 1 196.8 20.7 Z M 140.9 58 L 140.9 50.6 L 126.1 50.6 A 26.857 26.857 0 0 0 121.8 50.913 Q 113.9 52.202 113.9 58.8 A 8.287 8.287 0 0 0 114.412 61.769 Q 115.156 63.727 116.986 65.089 A 9.201 9.201 0 0 0 117 65.1 Q 120.1 67.4 125.6 67.4 A 20.717 20.717 0 0 0 130.389 66.871 A 16.037 16.037 0 0 0 135.1 64.95 Q 139.1 62.5 140.9 58 Z M 480.9 58 L 480.9 50.6 L 466.1 50.6 A 26.857 26.857 0 0 0 461.8 50.913 Q 453.9 52.202 453.9 58.8 A 8.287 8.287 0 0 0 454.412 61.769 Q 455.156 63.727 456.986 65.089 A 9.201 9.201 0 0 0 457 65.1 Q 460.1 67.4 465.6 67.4 A 20.717 20.717 0 0 0 470.389 66.871 A 16.037 16.037 0 0 0 475.1 64.95 Q 479.1 62.5 480.9 58 Z" vector-effect="non-scaling-stroke"/></g></svg>
